<svg xmlns="http://www.w3.org/2000/svg" xmlns:xlink="http://www.w3.org/1999/xlink" aria-hidden="true" focusable="false" width="1em" height="1em" style="-ms-transform: rotate(360deg); -webkit-transform: rotate(360deg); transform: rotate(360deg);" preserveAspectRatio="xMidYMid meet" viewBox="0 0 1792 1792"><path d="M1523 1339q-22-155-87.5-257.5T1251 963q-67 74-159.5 115.5T896 1120t-195.5-41.5T541 963q-119 16-184.5 118.5T269 1339q106 150 271 237.5t356 87.5t356-87.5t271-237.5zm-243-699q0-159-112.5-271.5T896 256T624.5 368.5T512 640t112.5 271.5T896 1024t271.5-112.5T1280 640zm512 256q0 182-71 347.5t-190.5 286T1245 1721t-349 71q-182 0-348-71t-286-191t-191-286T0 896t71-348t191-286T548 71T896 0t348 71t286 191t191 286t71 348z" fill="#03a9f4"/></svg>
