<?xml version="1.0" encoding="UTF-8" standalone="no"?>
<!DOCTYPE svg PUBLIC "-//W3C//DTD SVG 1.1//EN" "http://www.w3.org/Graphics/SVG/1.1/DTD/svg11.dtd">
<svg width="100%" height="100%" viewBox="0 0 2361 558" version="1.1" xmlns="http://www.w3.org/2000/svg" xmlns:xlink="http://www.w3.org/1999/xlink" xml:space="preserve" xmlns:serif="http://www.serif.com/" style="fill-rule:evenodd;clip-rule:evenodd;stroke-linejoin:round;stroke-miterlimit:2;">
    <g transform="matrix(0.179208,0.811897,-0.811897,0.179208,532.218,-18.8065)">
        <path d="M529.866,501.2L302.58,611.478L74.65,502.536L17.713,256.409L174.642,58.436L427.268,57.695L585.358,254.743L529.866,501.2Z" style="fill:rgb(0,68,170);"/>
    </g>
    <g id="Triangles" transform="matrix(0.332115,-0.686558,0.575241,0.396384,42.1935,532.239)">
        <path d="M300,504.39L140.404,227.961L459.596,227.961L300,504.39ZM604.027,605.606L323.441,537.799L484.025,262.143L604.027,605.606ZM823.538,399.034L633.244,590.907L514.3,247.165L823.538,399.034ZM789.323,55.429L832.614,362.502L523.706,209.513L789.323,55.429ZM527.356,-166.256L771.632,24.789L505.371,177.755L527.356,-166.256ZM232.142,-103.831L493.463,-172.672L470.344,171.064L232.142,-103.831ZM122.281,189.38L203.87,-87.508L441.302,188.163L122.281,189.38Z" style="fill:rgb(85,153,255);"/>
    </g>
    <g id="WBCE-CMS" serif:id="WBCE CMS" transform="matrix(371.715975,0,0,371.715975,703.818,425.941)">
        <path d="M0.764,-0.696L0.568,-0.018C0.563,-0.002 0.546,0.006 0.528,0.006C0.511,0.006 0.493,-0.001 0.489,-0.018L0.394,-0.371L0.299,-0.018C0.295,-0.002 0.278,0.006 0.26,0.006C0.242,0.006 0.225,-0.001 0.22,-0.018L0.023,-0.696C0.022,-0.699 0.022,-0.701 0.022,-0.704C0.022,-0.72 0.042,-0.731 0.06,-0.731C0.072,-0.731 0.083,-0.725 0.086,-0.714L0.259,-0.1L0.359,-0.473C0.363,-0.49 0.378,-0.496 0.394,-0.496C0.41,-0.496 0.423,-0.49 0.428,-0.473L0.528,-0.1L0.701,-0.714C0.704,-0.725 0.715,-0.731 0.727,-0.731C0.745,-0.731 0.765,-0.72 0.765,-0.704C0.765,-0.701 0.765,-0.699 0.764,-0.696ZM0.863,-0.025L0.863,-0.706C0.863,-0.723 0.878,-0.731 0.893,-0.731L1.057,-0.731C1.169,-0.731 1.261,-0.702 1.261,-0.561C1.261,-0.477 1.227,-0.418 1.176,-0.396C1.237,-0.371 1.279,-0.326 1.279,-0.224L1.279,-0.206C1.279,-0.054 1.192,0 1.081,0L0.893,0C0.874,0 0.863,-0.012 0.863,-0.025ZM0.928,-0.67L0.928,-0.425L1.059,-0.425C1.151,-0.425 1.195,-0.459 1.195,-0.554C1.195,-0.646 1.137,-0.67 1.055,-0.67L0.928,-0.67ZM0.928,-0.061L1.073,-0.061C1.16,-0.061 1.213,-0.106 1.213,-0.209L1.213,-0.226C1.213,-0.33 1.16,-0.368 1.073,-0.368L0.928,-0.368L0.928,-0.061ZM1.743,-0.549C1.741,-0.592 1.722,-0.67 1.603,-0.67C1.51,-0.67 1.459,-0.622 1.459,-0.518L1.459,-0.208C1.459,-0.103 1.51,-0.055 1.607,-0.055C1.726,-0.055 1.737,-0.13 1.743,-0.178C1.745,-0.194 1.755,-0.204 1.776,-0.204C1.799,-0.204 1.809,-0.196 1.809,-0.163C1.809,-0.072 1.732,0.006 1.6,0.006C1.487,0.006 1.393,-0.052 1.393,-0.208L1.393,-0.518C1.393,-0.673 1.489,-0.731 1.603,-0.731C1.734,-0.731 1.809,-0.654 1.809,-0.564C1.809,-0.531 1.799,-0.524 1.776,-0.524C1.753,-0.524 1.744,-0.535 1.743,-0.549ZM1.99,-0.67L1.99,-0.395L2.147,-0.395C2.163,-0.395 2.172,-0.381 2.172,-0.365C2.172,-0.352 2.165,-0.338 2.147,-0.338L1.99,-0.338L1.99,-0.061L2.31,-0.061C2.326,-0.061 2.335,-0.046 2.335,-0.03C2.335,-0.016 2.328,0 2.31,0L1.954,0C1.939,0 1.924,-0.009 1.924,-0.026L1.924,-0.706C1.924,-0.723 1.939,-0.731 1.954,-0.731L2.31,-0.731C2.328,-0.731 2.335,-0.716 2.335,-0.702C2.335,-0.685 2.326,-0.67 2.31,-0.67L1.99,-0.67ZM2.948,-0.518C2.946,-0.549 2.939,-0.617 2.844,-0.617C2.777,-0.617 2.739,-0.58 2.739,-0.502L2.739,-0.223C2.739,-0.145 2.777,-0.108 2.846,-0.108C2.937,-0.108 2.945,-0.173 2.948,-0.215C2.95,-0.246 2.978,-0.256 3.012,-0.256C3.057,-0.256 3.078,-0.243 3.078,-0.192C3.078,-0.071 2.979,0.006 2.839,0.006C2.713,0.006 2.609,-0.056 2.609,-0.223L2.609,-0.502C2.609,-0.669 2.714,-0.731 2.84,-0.731C2.979,-0.731 3.078,-0.657 3.078,-0.541C3.078,-0.489 3.057,-0.477 3.013,-0.477C2.976,-0.477 2.949,-0.488 2.948,-0.518ZM3.615,-0.471L3.498,-0.263C3.487,-0.243 3.47,-0.237 3.454,-0.237C3.438,-0.237 3.422,-0.243 3.411,-0.263L3.296,-0.479L3.296,-0.041C3.296,-0.014 3.263,0 3.231,0C3.198,0 3.166,-0.014 3.166,-0.041L3.166,-0.666C3.166,-0.714 3.198,-0.731 3.231,-0.731C3.278,-0.731 3.299,-0.721 3.332,-0.662L3.455,-0.438L3.578,-0.662C3.611,-0.721 3.633,-0.731 3.68,-0.731C3.713,-0.731 3.745,-0.714 3.745,-0.666L3.745,-0.041C3.745,-0.014 3.712,0 3.68,0C3.647,0 3.615,-0.014 3.615,-0.041L3.615,-0.471ZM4.056,-0.108C4.116,-0.108 4.168,-0.135 4.168,-0.195C4.168,-0.345 3.847,-0.299 3.847,-0.536C3.847,-0.685 3.975,-0.736 4.09,-0.736C4.149,-0.736 4.28,-0.722 4.28,-0.656C4.28,-0.633 4.264,-0.587 4.228,-0.587C4.197,-0.587 4.174,-0.625 4.09,-0.625C4.018,-0.625 3.977,-0.596 3.977,-0.548C3.977,-0.424 4.298,-0.467 4.298,-0.208C4.298,-0.065 4.198,0.009 4.06,0.009C3.929,0.009 3.829,-0.057 3.829,-0.115C3.829,-0.143 3.855,-0.185 3.886,-0.185C3.927,-0.185 3.954,-0.108 4.056,-0.108Z" style="fill:rgb(0,68,170);"/>
    </g>
</svg>
