<svg height="24" viewBox="0 0 24 24" width="24" xmlns="http://www.w3.org/2000/svg"><g fill="none" fill-rule="evenodd"><path d="m0 0h24v24h-24z" fill-rule="nonzero" transform="matrix(-1 0 0 1 24 0)"/><path d="m18.5 5.5h-2.5c-.8284 0-1.5-.67157-1.5-1.5s.6716-1.5 1.5-1.5h3c1.3807 0 2.5 1.11929 2.5 2.5v3c0 .82843-.6716 1.5-1.5 1.5s-1.5-.67157-1.5-1.5zm-10.5 0h-2.5v2.5c0 .82843-.67157 1.5-1.5 1.5s-1.5-.67157-1.5-1.5v-3c0-1.38071 1.11929-2.5 2.5-2.5h3c.82843 0 1.5.67157 1.5 1.5s-.67157 1.5-1.5 1.5zm0 13h-2.5v-2.5c0-.8284-.67157-1.5-1.5-1.5s-1.5.6716-1.5 1.5v3c0 1.3807 1.11929 2.5 2.5 2.5h3c.82843 0 1.5-.6716 1.5-1.5s-.67157-1.5-1.5-1.5zm8 0h2.5v-2.5c0-.8284.6716-1.5 1.5-1.5s1.5.6716 1.5 1.5v3c0 1.3807-1.1193 2.5-2.5 2.5h-3c-.8284 0-1.5-.6716-1.5-1.5s.6716-1.5 1.5-1.5z" fill="#09244b"/></g></svg>