<?xml version="1.0" encoding="UTF-8" standalone="no"?><!DOCTYPE svg PUBLIC "-//W3C//DTD SVG 1.1//EN" "http://www.w3.org/Graphics/SVG/1.1/DTD/svg11.dtd"><svg width="100%" height="100%" viewBox="0 0 900 600" version="1.1" xmlns="http://www.w3.org/2000/svg" xmlns:xlink="http://www.w3.org/1999/xlink" xml:space="preserve" xmlns:serif="http://www.serif.com/" style="fill-rule:evenodd;clip-rule:evenodd;stroke-linecap:round;stroke-linejoin:round;stroke-miterlimit:2.613;"><rect x="0" y="0" width="900" height="600" style="fill:#c60b1e;"/><rect x="0" y="150" width="900" height="300" style="fill:#ffc400;"/><g><g><g><g><path d="M70.32,253.588c0,3.015 18.908,3.279 19.178,-0.113c-0.853,-2.385 -18.78,-2.388 -19.178,0.113Z" style="fill:#cc2229;stroke:#000;stroke-width:1.56px;"/><path d="M79.823,241.163c0.254,0 0.254,0.254 0.254,0.254c0,0.254 0,0.254 -0.254,0.254c-0.254,0 -0.254,0 -0.254,-0.254c0,0 0,-0.254 0.254,-0.254Zm0,0.762c0.254,0 0.254,0.254 0.254,0.508c0,0 0,0.254 -0.254,0.254c-0.254,0 -0.254,-0.254 -0.254,-0.254c0,-0.254 0,-0.508 0.254,-0.508Zm0,1.017c0.254,0 0.254,0.254 0.254,0.254c0,0.254 0,0.512 -0.254,0.512c-0.254,0 -0.508,-0.254 -0.508,-0.512c0,0 0.254,-0.254 0.508,-0.254Zm14.233,4.321c-0.508,0 -0.762,0.508 -0.762,0.762c0,0.254 0.254,0.508 0.762,0.508c0.271,-0.019 0.49,-0.237 0.508,-0.508c0,-0.254 -0.254,-0.762 -0.508,-0.762Zm0.508,-1.525c-0.508,0 -0.762,0.254 -0.762,0.508c0,0.254 0.254,0.508 0.762,0.508c0.254,0 0.762,-0.254 0.762,-0.508c0,-0.254 -0.508,-0.508 -0.762,-0.508Zm0,-1.271c-0.271,0.019 -0.49,0.237 -0.508,0.508c0,0.254 0.254,0.508 0.508,0.508c0.508,0 0.762,-0.254 0.762,-0.508c0,-0.254 -0.254,-0.508 -0.762,-0.508Zm-0.254,-1.525c-0.254,0 -0.762,0.254 -0.762,0.508c0,0.254 0.508,0.508 0.762,0.508c0.254,0 0.762,-0.254 0.762,-0.508c0,-0.254 -0.508,-0.508 -0.762,-0.508Zm-1.271,-1.271c-0.508,0 -0.762,0.254 -0.762,0.762c0,0.254 0.254,0.508 0.762,0.508c0.254,0 0.762,-0.254 0.762,-0.508c0,-0.508 -0.508,-0.762 -0.762,-0.762Zm-1.525,-0.254c-0.254,0 -0.762,0.254 -0.762,0.508c0,0.254 0.508,0.508 0.762,0.508c0.254,0 0.762,-0.254 0.762,-0.508c0,-0.254 -0.508,-0.508 -0.762,-0.508Zm-1.525,-0.254c-0.271,0.019 -0.49,0.237 -0.508,0.508c0,0.254 0.254,0.508 0.508,0.508c0.508,0 0.762,-0.254 0.762,-0.508c0,-0.254 -0.254,-0.508 -0.762,-0.508Zm-1.271,-0.254c-0.512,0 -0.512,0.254 -0.512,0.762c0,0.254 0,0.508 0.512,0.508c0.508,0 0.762,-0.254 0.762,-0.508c0,-0.508 -0.254,-0.762 -0.762,-0.762Zm-2.033,4.321c-0.254,0 -0.254,0.254 -0.254,0.508c0,0.254 0,0.508 0.254,0.508c0.254,0 0.508,-0.254 0.508,-0.508c0,-0.254 -0.254,-0.508 -0.508,-0.508Zm0.508,-1.017c-0.271,0.019 -0.49,0.237 -0.508,0.508c0,0.254 0.254,0.254 0.508,0.254c0.254,0 0.508,0 0.508,-0.254c-0.019,-0.271 -0.237,-0.49 -0.508,-0.508Zm0.254,-1.271c-0.254,0 -0.508,0.254 -0.508,0.508c0,0.254 0.254,0.508 0.508,0.508c0.254,0 0.762,-0.254 0.762,-0.508c0,-0.254 -0.508,-0.508 -0.762,-0.508Zm-0.254,-1.271c-0.254,0 -0.508,0 -0.508,0.254c0,0.254 0.254,0.508 0.508,0.508c0.508,0 0.762,-0.254 0.762,-0.508c0,-0.254 -0.254,-0.254 -0.762,-0.254Zm-1.017,-1.271c-0.254,0 -0.762,0.254 -0.762,0.512c0,0.254 0.508,0.762 0.762,0.762c0.254,0 0.762,-0.508 0.762,-0.762c0,-0.258 -0.508,-0.512 -0.762,-0.512Zm-1.525,-0.762c-0.508,0 -0.762,0.508 -0.762,0.508c0,0.508 0.254,0.762 0.762,0.762c0.254,0 0.508,-0.254 0.508,-0.762c0,0 -0.254,-0.508 -0.508,-0.508Zm-1.525,0c-0.254,0 -0.762,0.254 -0.762,0.508c0,0.254 0.508,0.508 0.762,0.508c0.254,0 0.762,-0.254 0.762,-0.508c0,-0.254 -0.508,-0.508 -0.762,-0.508Zm-1.525,0c-0.254,0 -0.508,0.254 -0.508,0.508c0,0.254 0.254,0.508 0.508,0.508c0.254,0 0.762,-0.254 0.762,-0.508c0,-0.254 -0.508,-0.508 -0.762,-0.508Zm-3.558,0c0.254,0 0.512,0.254 0.512,0.508c0,0.254 -0.254,0.508 -0.512,0.508c-0.508,0 -0.762,-0.254 -0.762,-0.508c0,-0.254 0.254,-0.508 0.762,-0.508Zm-1.525,0c0.254,0 0.508,0.254 0.508,0.508c0,0.254 -0.254,0.508 -0.508,0.508c-0.508,0 -0.762,-0.254 -0.762,-0.508c0,-0.254 0.254,-0.508 0.762,-0.508Zm-1.525,0c0.254,0 0.508,0.508 0.508,0.508c0,0.508 -0.254,0.762 -0.508,0.762c-0.254,0 -0.762,-0.254 -0.762,-0.762c0,0 0.508,-0.508 0.762,-0.508Zm-1.525,0.762c0.254,0 0.508,0.254 0.508,0.512c0,0.254 -0.254,0.762 -0.508,0.762c-0.508,0 -0.762,-0.508 -0.762,-0.762c0,-0.258 0.254,-0.512 0.762,-0.512Zm-1.271,1.271c0.254,0 0.762,0 0.762,0.254c0,0.254 -0.508,0.508 -0.762,0.508c-0.254,0 -0.508,-0.254 -0.508,-0.508c0,-0.254 0.254,-0.254 0.508,-0.254Zm-0.254,1.271c0.508,0 0.762,0.254 0.762,0.508c0,0.254 -0.254,0.508 -0.762,0.508c-0.254,0 -0.254,-0.254 -0.254,-0.508c0,-0.254 0,-0.508 0.254,-0.508Zm0.508,1.271c0.254,0 0.508,0.254 0.508,0.508c0,0.254 -0.254,0.254 -0.508,0.254c-0.254,0 -0.508,0 -0.508,-0.254c0,-0.254 0.254,-0.508 0.508,-0.508Zm0.254,1.017c0.254,0 0.508,0.254 0.508,0.508c0,0.254 -0.254,0.508 -0.508,0.508c-0.254,0 -0.508,-0.254 -0.508,-0.508c0,-0.254 0.254,-0.508 0.508,-0.508Zm-2.033,-4.321c0.508,0 0.762,0.254 0.762,0.762c0,0.254 -0.254,0.508 -0.762,0.508c-0.271,-0.019 -0.49,-0.237 -0.508,-0.508c0,-0.508 0.254,-0.762 0.508,-0.762Zm-1.271,0.254c0.508,0 0.762,0.254 0.762,0.508c0,0.254 -0.254,0.508 -0.762,0.508c-0.254,0 -0.762,-0.254 -0.762,-0.508c0,-0.254 0.508,-0.508 0.762,-0.508Zm-1.271,0.254c0.254,0 0.508,0.254 0.508,0.508c-0.019,0.271 -0.237,0.49 -0.508,0.508c-0.508,0 -0.762,-0.254 -0.762,-0.508c0,-0.254 0.254,-0.508 0.762,-0.508Zm-2.796,1.525c0.254,0 0.508,0.254 0.508,0.508c0,0.254 -0.254,0.508 -0.508,0.508c-0.508,0 -0.762,-0.254 -0.762,-0.508c0,-0.254 0.254,-0.508 0.762,-0.508Zm1.271,-1.271c0.254,0 0.508,0.254 0.508,0.762c-0.019,0.271 -0.237,0.49 -0.508,0.508c-0.508,0 -0.762,-0.254 -0.762,-0.508c0,-0.508 0.254,-0.762 0.762,-0.762Zm-1.525,4.066c0.254,0 0.508,0.254 0.508,0.508c0,0.254 -0.254,0.508 -0.508,0.508c-0.508,0 -0.762,-0.254 -0.762,-0.508c0,-0.254 0.254,-0.508 0.762,-0.508Zm-0.254,-1.271c0.508,0 0.762,0.254 0.762,0.508c0,0.254 -0.254,0.508 -0.762,0.508c-0.271,-0.019 -0.49,-0.237 -0.508,-0.508c0,-0.254 0.254,-0.508 0.508,-0.508Zm0.762,2.796c0.254,0 0.508,0.508 0.508,0.762c0,0.254 -0.254,0.508 -0.508,0.508c-0.254,0 -0.762,-0.254 -0.762,-0.508c0,-0.254 0.508,-0.762 0.762,-0.762Zm27.195,1.017l-0.508,-1.271c3.05,-2.796 -1.271,-5.083 -4.066,-4.321l-0.254,-0.508c2.796,0 8.133,1.017 4.575,4.829l0.508,1.271l-0.254,0Zm-6.608,-1.779l-0.508,-1.525c2.542,-3.05 -2.796,-4.829 -4.575,-3.304l0,-0.508c2.542,-1.525 7.879,1.017 4.829,4.066l0.508,1.017l-0.254,0.254Zm-4.829,-4.829c-0.254,1.271 -0.762,0.508 0,-0.508l0,0.508Zm-3.05,0c0.254,1.271 0.508,0.508 0,-0.508l0,0.508Zm-4.829,4.829l0.508,-1.525c-2.542,-3.05 2.796,-4.829 4.321,-3.304l0,-0.508c-2.287,-1.525 -7.625,1.017 -4.829,4.066l-0.508,1.017l0.508,0.254Zm-6.608,1.779l0.254,-1.271c-2.796,-2.796 1.271,-5.083 4.321,-4.321l0,-0.508c-2.796,0 -7.875,1.017 -4.575,4.829l-0.508,1.271l0.508,0Zm13.216,-10.675c1.525,1.271 0.762,2.542 0,3.558c-0.762,-0.762 -1.271,-1.017 -1.271,-1.779c0,-0.762 0.254,-1.271 1.271,-1.779Zm0,2.033l0,-2.542l0.508,0l0,-0.254l-0.508,0l0,-0.508l-0.254,0l0,0.508l-0.762,0l0,0.254l0.762,0l0,2.542l-1.017,0l0,0.254l2.033,0l0.254,-0.254l-1.017,0Z" style="fill:#fff;stroke:#000;stroke-width:0.35px;"/></g></g></g><path d="M92.785,246.5c0,-2.033 -3.558,-3.308 -6.1,-1.525c-1.017,-1.779 -4.321,-2.796 -6.862,-1.271c-1.525,-1.525 -5.337,-1.271 -6.608,1.017c-2.033,-1.525 -6.1,-0.254 -6.1,2.287c1.779,6.103 3.05,5.591 3.558,5.337c3.558,-0.762 12.708,-1.525 18.553,0.254c1.779,0.254 3.304,-3.05 3.558,-6.1Z" style="fill:#cc2229;stroke:#000;stroke-width:0.76px;"/><path d="M94.564,249.804c-0.762,-1.271 -2.287,-1.271 -2.796,0c-0.254,0.254 -0.508,0 -1.017,-0.254c0.254,0.254 0,0.508 -0.254,0.508l-0.762,0c0.254,0.254 0.254,0.254 0.508,0.762c0,0 -0.254,0.254 -0.508,0.254c0.254,0 1.267,-0.254 1.779,0c0,-1.525 2.287,-1.271 3.05,-1.271Zm-7.37,0.508l-0.254,-0.508l1.267,-0.254l-1.017,-0.254l0.508,-0.762l-1.271,0.254l0.762,-1.525l-0.762,0.254l-0.508,-0.762l-0.508,0.762l-0.508,-0.508l0,1.525l-1.017,-0.254l0.254,0.508l-1.017,0.254l1.017,0.508l-0.508,0.254l1.525,0.254l2.037,0.254Zm-7.116,-1.271l-2.287,0.508l0.508,-0.762l-1.779,-0.508l1.779,-0.254l-0.508,-0.762l1.271,0.508l-0.508,-1.779l0.762,0.512l0.508,-1.271l0.512,1.271l0.762,-0.762l-0.508,2.287l1.525,-0.508l-0.508,0.762l1.525,0.254l-1.528,0.505l0.254,0.762l-1.779,-0.762Zm-8.387,1.017l0.254,-0.508l-1.271,-0.254l1.017,-0.512l-0.508,-0.508l1.271,0l-0.762,-1.271l1.017,0.254l0.254,-0.762l0.508,0.508l0.508,-0.254l-0.254,1.525l1.271,-0.505l-0.254,0.762l1.017,0l-1.017,0.762l0.508,0.508l-1.525,0l-2.033,0.254Zm-6.354,-0.762c0.508,-1.017 2.033,-1.271 2.542,0c0.254,0.508 0.508,0 1.017,-0.254c-0.254,0.508 0,0.508 0.254,0.762l0.762,0c-0.254,0 -0.254,0.254 -0.508,0.508c0.254,0 0.508,0.254 0.508,0.508c-0.254,-0.254 -1.271,-0.508 -1.525,-0.254c0,-1.525 -2.287,-1.271 -3.05,-1.271Z" style="fill:#fff22d;stroke:#000;stroke-width:0.35px;"/><path d="M67.877,250.058c-1.017,0 -1.017,0.254 -0.762,0.762c0.508,0.508 1.017,0.254 1.017,-0.508c0,-0.254 -0.254,-0.254 -0.254,-0.254Z" style="fill:#cc2229;stroke:#000;stroke-width:0.35px;"/></g><g><g><g><g><path d="M247.548,253.588c0,3.015 18.908,3.279 19.178,-0.113c-0.853,-2.385 -18.78,-2.388 -19.178,0.113Z" style="fill:#cc2229;stroke:#000;stroke-width:1.56px;"/><path d="M257.05,241.163c0.254,0 0.254,0.254 0.254,0.254c0,0.254 0,0.254 -0.254,0.254c-0.254,0 -0.254,0 -0.254,-0.254c0,0 0,-0.254 0.254,-0.254Zm0,0.762c0.254,0 0.254,0.254 0.254,0.508c0,0 0,0.254 -0.254,0.254c-0.254,0 -0.254,-0.254 -0.254,-0.254c0,-0.254 0,-0.508 0.254,-0.508Zm0,1.017c0.254,0 0.254,0.254 0.254,0.254c0,0.254 0,0.512 -0.254,0.512c-0.254,0 -0.508,-0.254 -0.508,-0.512c0,0 0.254,-0.254 0.508,-0.254Zm14.233,4.321c-0.508,0 -0.762,0.508 -0.762,0.762c0,0.254 0.254,0.508 0.762,0.508c0.271,-0.019 0.49,-0.237 0.508,-0.508c0,-0.254 -0.254,-0.762 -0.508,-0.762Zm0.508,-1.525c-0.508,0 -0.762,0.254 -0.762,0.508c0,0.254 0.254,0.508 0.762,0.508c0.254,0 0.762,-0.254 0.762,-0.508c0,-0.254 -0.508,-0.508 -0.762,-0.508Zm0,-1.271c-0.271,0.019 -0.49,0.237 -0.508,0.508c0,0.254 0.254,0.508 0.508,0.508c0.508,0 0.762,-0.254 0.762,-0.508c0,-0.254 -0.254,-0.508 -0.762,-0.508Zm-0.254,-1.525c-0.254,0 -0.762,0.254 -0.762,0.508c0,0.254 0.508,0.508 0.762,0.508c0.254,0 0.762,-0.254 0.762,-0.508c0,-0.254 -0.508,-0.508 -0.762,-0.508Zm-1.271,-1.271c-0.508,0 -0.762,0.254 -0.762,0.762c0,0.254 0.254,0.508 0.762,0.508c0.254,0 0.762,-0.254 0.762,-0.508c0,-0.508 -0.508,-0.762 -0.762,-0.762Zm-1.525,-0.254c-0.254,0 -0.762,0.254 -0.762,0.508c0,0.254 0.508,0.508 0.762,0.508c0.254,0 0.762,-0.254 0.762,-0.508c0,-0.254 -0.508,-0.508 -0.762,-0.508Zm-1.525,-0.254c-0.271,0.019 -0.49,0.237 -0.508,0.508c0,0.254 0.254,0.508 0.508,0.508c0.508,0 0.762,-0.254 0.762,-0.508c0,-0.254 -0.254,-0.508 -0.762,-0.508Zm-1.271,-0.254c-0.512,0 -0.512,0.254 -0.512,0.762c0,0.254 0,0.508 0.512,0.508c0.508,0 0.762,-0.254 0.762,-0.508c0,-0.508 -0.254,-0.762 -0.762,-0.762Zm-2.033,4.321c-0.254,0 -0.254,0.254 -0.254,0.508c0,0.254 0,0.508 0.254,0.508c0.254,0 0.508,-0.254 0.508,-0.508c0,-0.254 -0.254,-0.508 -0.508,-0.508Zm0.508,-1.017c-0.271,0.019 -0.49,0.237 -0.508,0.508c0,0.254 0.254,0.254 0.508,0.254c0.254,0 0.508,0 0.508,-0.254c-0.019,-0.271 -0.237,-0.49 -0.508,-0.508Zm0.254,-1.271c-0.254,0 -0.508,0.254 -0.508,0.508c0,0.254 0.254,0.508 0.508,0.508c0.254,0 0.762,-0.254 0.762,-0.508c0,-0.254 -0.508,-0.508 -0.762,-0.508Zm-0.254,-1.271c-0.254,0 -0.508,0 -0.508,0.254c0,0.254 0.254,0.508 0.508,0.508c0.508,0 0.762,-0.254 0.762,-0.508c0,-0.254 -0.254,-0.254 -0.762,-0.254Zm-1.017,-1.271c-0.254,0 -0.762,0.254 -0.762,0.512c0,0.254 0.508,0.762 0.762,0.762c0.254,0 0.762,-0.508 0.762,-0.762c0,-0.258 -0.508,-0.512 -0.762,-0.512Zm-1.525,-0.762c-0.508,0 -0.762,0.508 -0.762,0.508c0,0.508 0.254,0.762 0.762,0.762c0.254,0 0.508,-0.254 0.508,-0.762c0,0 -0.254,-0.508 -0.508,-0.508Zm-1.525,0c-0.254,0 -0.762,0.254 -0.762,0.508c0,0.254 0.508,0.508 0.762,0.508c0.254,0 0.762,-0.254 0.762,-0.508c0,-0.254 -0.508,-0.508 -0.762,-0.508Zm-1.525,0c-0.254,0 -0.508,0.254 -0.508,0.508c0,0.254 0.254,0.508 0.508,0.508c0.254,0 0.762,-0.254 0.762,-0.508c0,-0.254 -0.508,-0.508 -0.762,-0.508Zm-3.558,0c0.254,0 0.512,0.254 0.512,0.508c0,0.254 -0.254,0.508 -0.512,0.508c-0.508,0 -0.762,-0.254 -0.762,-0.508c0,-0.254 0.254,-0.508 0.762,-0.508Zm-1.525,0c0.254,0 0.508,0.254 0.508,0.508c0,0.254 -0.254,0.508 -0.508,0.508c-0.508,0 -0.762,-0.254 -0.762,-0.508c0,-0.254 0.254,-0.508 0.762,-0.508Zm-1.525,0c0.254,0 0.508,0.508 0.508,0.508c0,0.508 -0.254,0.762 -0.508,0.762c-0.254,0 -0.762,-0.254 -0.762,-0.762c0,0 0.508,-0.508 0.762,-0.508Zm-1.525,0.762c0.254,0 0.508,0.254 0.508,0.512c0,0.254 -0.254,0.762 -0.508,0.762c-0.508,0 -0.762,-0.508 -0.762,-0.762c0,-0.258 0.254,-0.512 0.762,-0.512Zm-1.271,1.271c0.254,0 0.762,0 0.762,0.254c0,0.254 -0.508,0.508 -0.762,0.508c-0.254,0 -0.508,-0.254 -0.508,-0.508c0,-0.254 0.254,-0.254 0.508,-0.254Zm-0.254,1.271c0.508,0 0.762,0.254 0.762,0.508c0,0.254 -0.254,0.508 -0.762,0.508c-0.254,0 -0.254,-0.254 -0.254,-0.508c0,-0.254 0,-0.508 0.254,-0.508Zm0.508,1.271c0.254,0 0.508,0.254 0.508,0.508c0,0.254 -0.254,0.254 -0.508,0.254c-0.254,0 -0.508,0 -0.508,-0.254c0,-0.254 0.254,-0.508 0.508,-0.508Zm0.254,1.017c0.254,0 0.508,0.254 0.508,0.508c0,0.254 -0.254,0.508 -0.508,0.508c-0.254,0 -0.508,-0.254 -0.508,-0.508c0,-0.254 0.254,-0.508 0.508,-0.508Zm-2.033,-4.321c0.508,0 0.762,0.254 0.762,0.762c0,0.254 -0.254,0.508 -0.762,0.508c-0.271,-0.019 -0.49,-0.237 -0.508,-0.508c0,-0.508 0.254,-0.762 0.508,-0.762Zm-1.271,0.254c0.508,0 0.762,0.254 0.762,0.508c0,0.254 -0.254,0.508 -0.762,0.508c-0.254,0 -0.762,-0.254 -0.762,-0.508c0,-0.254 0.508,-0.508 0.762,-0.508Zm-1.271,0.254c0.254,0 0.508,0.254 0.508,0.508c-0.019,0.271 -0.237,0.49 -0.508,0.508c-0.508,0 -0.762,-0.254 -0.762,-0.508c0,-0.254 0.254,-0.508 0.762,-0.508Zm-2.796,1.525c0.254,0 0.508,0.254 0.508,0.508c0,0.254 -0.254,0.508 -0.508,0.508c-0.508,0 -0.762,-0.254 -0.762,-0.508c0,-0.254 0.254,-0.508 0.762,-0.508Zm1.271,-1.271c0.254,0 0.508,0.254 0.508,0.762c-0.019,0.271 -0.237,0.49 -0.508,0.508c-0.508,0 -0.762,-0.254 -0.762,-0.508c0,-0.508 0.254,-0.762 0.762,-0.762Zm-1.525,4.066c0.254,0 0.508,0.254 0.508,0.508c0,0.254 -0.254,0.508 -0.508,0.508c-0.508,0 -0.762,-0.254 -0.762,-0.508c0,-0.254 0.254,-0.508 0.762,-0.508Zm-0.254,-1.271c0.508,0 0.762,0.254 0.762,0.508c0,0.254 -0.254,0.508 -0.762,0.508c-0.271,-0.019 -0.49,-0.237 -0.508,-0.508c0,-0.254 0.254,-0.508 0.508,-0.508Zm0.762,2.796c0.254,0 0.508,0.508 0.508,0.762c0,0.254 -0.254,0.508 -0.508,0.508c-0.254,0 -0.762,-0.254 -0.762,-0.508c0,-0.254 0.508,-0.762 0.762,-0.762Zm27.195,1.017l-0.508,-1.271c3.05,-2.796 -1.271,-5.083 -4.066,-4.321l-0.254,-0.508c2.796,0 8.133,1.017 4.575,4.829l0.508,1.271l-0.254,0Zm-6.608,-1.779l-0.508,-1.525c2.542,-3.05 -2.796,-4.829 -4.575,-3.304l0,-0.508c2.542,-1.525 7.879,1.017 4.829,4.066l0.508,1.017l-0.254,0.254Zm-4.829,-4.829c-0.254,1.271 -0.762,0.508 0,-0.508l0,0.508Zm-3.05,0c0.254,1.271 0.508,0.508 0,-0.508l0,0.508Zm-4.829,4.829l0.508,-1.525c-2.542,-3.05 2.796,-4.829 4.321,-3.304l0,-0.508c-2.287,-1.525 -7.625,1.017 -4.829,4.066l-0.508,1.017l0.508,0.254Zm-6.608,1.779l0.254,-1.271c-2.796,-2.796 1.271,-5.083 4.321,-4.321l0,-0.508c-2.796,0 -7.875,1.017 -4.575,4.829l-0.508,1.271l0.508,0Zm13.216,-10.675c1.525,1.271 0.762,2.542 0,3.558c-0.762,-0.762 -1.271,-1.017 -1.271,-1.779c0,-0.762 0.254,-1.271 1.271,-1.779Zm0,2.033l0,-2.542l0.508,0l0,-0.254l-0.508,0l0,-0.508l-0.254,0l0,0.508l-0.762,0l0,0.254l0.762,0l0,2.542l-1.017,0l0,0.254l2.033,0l0.254,-0.254l-1.017,0Z" style="fill:#fff;stroke:#000;stroke-width:0.35px;"/></g></g></g><path d="M270.012,246.5c0,-2.033 -3.558,-3.308 -6.1,-1.525c-1.017,-1.779 -4.321,-2.796 -6.862,-1.271c-1.525,-1.525 -5.337,-1.271 -6.608,1.017c-2.033,-1.525 -6.1,-0.254 -6.1,2.287c1.779,6.103 3.05,5.591 3.558,5.337c3.558,-0.762 12.708,-1.525 18.553,0.254c1.779,0.254 3.304,-3.05 3.558,-6.1Z" style="fill:#cc2229;stroke:#000;stroke-width:0.76px;"/><path d="M271.791,249.804c-0.762,-1.271 -2.287,-1.271 -2.796,0c-0.254,0.254 -0.508,0 -1.017,-0.254c0.254,0.254 0,0.508 -0.254,0.508l-0.762,0c0.254,0.254 0.254,0.254 0.508,0.762c0,0 -0.254,0.254 -0.508,0.254c0.254,0 1.267,-0.254 1.779,0c0,-1.525 2.287,-1.271 3.05,-1.271Zm-7.37,0.508l-0.254,-0.508l1.267,-0.254l-1.017,-0.254l0.508,-0.762l-1.271,0.254l0.762,-1.525l-0.762,0.254l-0.508,-0.762l-0.508,0.762l-0.508,-0.508l0,1.525l-1.017,-0.254l0.254,0.508l-1.017,0.254l1.017,0.508l-0.508,0.254l1.525,0.254l2.037,0.254Zm-7.116,-1.271l-2.287,0.508l0.508,-0.762l-1.779,-0.508l1.779,-0.254l-0.508,-0.762l1.271,0.508l-0.508,-1.779l0.762,0.512l0.508,-1.271l0.512,1.271l0.762,-0.762l-0.508,2.287l1.525,-0.508l-0.508,0.762l1.525,0.254l-1.528,0.505l0.254,0.762l-1.779,-0.762Zm-8.387,1.017l0.254,-0.508l-1.271,-0.254l1.017,-0.512l-0.508,-0.508l1.271,0l-0.762,-1.271l1.017,0.254l0.254,-0.762l0.508,0.508l0.508,-0.254l-0.254,1.525l1.271,-0.505l-0.254,0.762l1.017,0l-1.017,0.762l0.508,0.508l-1.525,0l-2.033,0.254Zm-6.354,-0.762c0.508,-1.017 2.033,-1.271 2.542,0c0.254,0.508 0.508,0 1.017,-0.254c-0.254,0.508 0,0.508 0.254,0.762l0.762,0c-0.254,0 -0.254,0.254 -0.508,0.508c0.254,0 0.508,0.254 0.508,0.508c-0.254,-0.254 -1.271,-0.508 -1.525,-0.254c0,-1.525 -2.287,-1.271 -3.05,-1.271Z" style="fill:#fff22d;stroke:#000;stroke-width:0.35px;"/><path d="M245.105,250.058c-1.017,0 -1.017,0.254 -0.762,0.762c0.508,0.508 1.017,0.254 1.017,-0.508c0,-0.254 -0.254,-0.254 -0.254,-0.254Z" style="fill:#cc2229;stroke:#000;stroke-width:0.35px;"/></g><g id="coa"><g><rect x="60.773" y="384.237" width="37.869" height="16.266" style="fill:#d0d1d3;stroke:#000;stroke-width:0.97px;stroke-linecap:butt;stroke-miterlimit:2;"/><rect x="238.946" y="384.237" width="37.869" height="16.266" style="fill:#d0d1d3;stroke:#000;stroke-width:0.97px;stroke-linecap:butt;stroke-miterlimit:2;"/><path d="M161.164,346.097l0,37.615l-6.354,5.337l0,-49.052c1.779,2.287 4.066,4.321 6.354,6.1Zm-19.316,-22.874l0,71.929l5.846,-2.033l0,-69.896l-5.846,0Zm-6.354,0l0,73.956l-6.608,-2.792l0,-71.163l6.608,0Zm-13.724,66.839l0,-66.839l-6.354,0l0,60.994c2.033,2.033 4.066,3.812 6.354,5.846Z" style="fill:#cc2229;stroke:#000;stroke-width:0.76px;"/><path d="M109.317,308.228l0,-12.962c-13.47,-5.083 -40.919,-3.304 -51.593,7.37c-0.762,2.545 3.304,11.183 4.321,12.203c7.116,-10.424 34.057,-13.728 47.273,-6.612Z" style="fill:#cc2229;stroke:#000;stroke-width:0.35px;"/><path d="M62.552,314.84c2.033,2.792 4.829,5.337 7.879,5.839" style="fill:none;fill-rule:nonzero;stroke:#000;stroke-width:0.35px;"/><path d="M89.493,311.274c1.779,0.512 5.846,3.053 6.354,4.832c-5.846,8.638 -23.891,13.975 -35.328,21.098c-2.287,4.571 -0.762,10.163 0.762,11.688c11.945,-7.116 32.024,-15.754 35.582,-21.6c0.508,-1.02 0.762,-8.391 -1.017,-11.183c-1.271,-1.783 -3.812,-3.816 -6.354,-4.836Z" style="fill:#cc2229;stroke:#000;stroke-width:0.35px;"/><path d="M65.348,346.609c2.796,1.525 4.321,9.15 1.017,8.638c-0.508,-1.525 -4.321,-5.846 -4.829,-6.357l3.812,-2.28Z" style="fill:#cc2229;stroke:#000;stroke-width:0.35px;"/><path d="M253.423,304.67l0,20.587m0,-55.914l0,23.636" style="fill:none;fill-rule:nonzero;stroke:#000;stroke-width:0.35px;"/><path d="M271.468,376.846l0,7.882l-27.195,0l0,-7.882l27.195,0Zm-5.591,-3.558l3.05,3.558l-22.874,0l3.558,-3.558l16.266,0Zm0.762,-2.033l-18.553,0c-0.254,0 -0.762,0.254 -0.762,1.274c0,0.759 0.508,0.759 0.762,0.759l18.553,0c1.017,0 1.271,0 1.271,-0.759c0,-1.017 -0.254,-1.274 -1.271,-1.274Z" style="fill:#c6aa6a;stroke:#000;stroke-width:0.35px;"/><path d="M249.102,333.894l0,37.361l17.537,0l0,-27.703c-5.591,-3.3 -11.691,-6.347 -17.537,-9.658Zm17.537,-25.666l0,23.132c-6.103,-2.545 -11.691,-5.846 -17.791,-8.645l0,-18.553c4.575,-0.004 12.199,1.274 17.791,4.066Zm-0.254,-38.886l0,25.67c-5.846,-1.779 -11.437,-2.033 -17.283,-2.287l0,-23.382l17.283,0Z" style="fill:#fff;stroke:#000;stroke-width:0.35px;"/><path d="M88.73,333.894l0,37.361l-17.791,0l0,-27.703c5.591,-3.3 11.945,-5.846 17.791,-9.658Zm-18.045,-25.158l0,23.379c6.1,-3.304 12.708,-6.096 18.045,-9.404l0,-18.041c-6.1,0.766 -12.199,1.267 -18.045,4.066Zm0.508,-39.394l0,25.67c5.591,-1.779 11.437,-2.033 17.537,-2.287l0,-23.382l-17.537,0Zm0,-2.542l0,2.542l17.537,0l0,-2.542l-17.537,0Z" style="fill:#fff;stroke:#000;stroke-width:0.35px;"/><path d="M68.398,262.226l3.05,4.575l17.283,0l3.304,-4.575l-23.636,0Zm-1.525,-6.862l25.924,0l0,6.862l-25.924,0l0,-6.862Z" style="fill:#c6aa6a;stroke:#000;stroke-width:0.66px;"/><path d="M86.189,269.342l0,23.636m1.271,-23.636l0,23.636m175.875,-23.636l0,23.636m1.779,-23.636l0,23.636m-178.925,11.691l-0,19.319m1.271,-19.319l0,19.319m175.875,-19.319l0,19.319m1.779,-19.319l0,19.319m-178.925,11.684l-0,35.328m1.271,-35.328l0,35.328m175.875,-35.328l0,35.328m1.779,-35.328l0,35.328" style="fill:none;fill-rule:nonzero;stroke:#000;stroke-width:0.35px;"/><path d="M229.786,306.957l0.254,-12.203c13.47,-5.08 39.394,-2.796 50.323,7.879c0.762,2.545 -3.304,11.183 -4.321,12.203c-7.116,-10.42 -32.786,-14.992 -46.256,-7.879Z" style="fill:#cc2229;stroke:#000;stroke-width:0.35px;"/><path d="M275.788,314.585c-2.033,2.792 -5.591,6.096 -8.641,6.859" style="fill:none;fill-rule:nonzero;stroke:#000;stroke-width:0.35px;"/><path d="M248.086,311.529c-1.779,0.512 -5.337,2.799 -5.846,4.578c5.846,8.638 23.891,13.975 35.328,21.098c2.287,4.571 0.762,10.163 -0.762,11.688c-12.199,-7.116 -32.024,-15.754 -35.582,-21.6c-0.508,-1.02 -1.017,-8.391 1.017,-11.183c1.525,-2.291 3.304,-3.304 5.846,-4.582Z" style="fill:#cc2229;stroke:#000;stroke-width:0.35px;"/><path d="M272.484,346.609c-2.542,1.525 -4.066,9.15 -0.762,8.638c0.508,-1.525 4.321,-5.846 4.829,-6.357l-4.066,-2.28Z" style="fill:#cc2229;stroke:#000;stroke-width:0.35px;"/><path d="M66.619,308.994l-3.812,-8.391c2.033,-1.267 4.829,-3.046 6.608,-0.254c0.762,1.779 0,3.558 -3.558,4.832l1.525,3.304l-0.762,0.508Zm-2.796,-8.136l1.525,3.304c2.287,-0.505 4.321,-1.779 3.05,-3.558c-1.017,-1.779 -2.796,-0.512 -4.575,0.254Zm11.183,3.3l3.812,-1.013l0.254,0.759l-4.575,1.532l-2.796,-9.404l1.017,0l2.287,8.126Zm11.691,-0.755l-4.321,-8.899l1.017,0l3.812,7.879l2.796,-8.133l1.017,0l-3.308,9.153l-1.013,0Zm9.15,-3.057c0,3.311 4.321,2.287 3.304,-0.505c-0.254,-1.02 -4.575,-1.274 -3.558,-4.066c0.254,-1.274 2.542,-2.545 4.575,-1.02c0.508,0.254 0.508,1.274 0.508,2.033l-0.762,-0.254c-0.508,-2.033 -3.304,-1.779 -3.304,-0.505c-0.512,2.538 3.304,0.759 3.812,4.571c0.254,0.512 -0.254,3.053 -3.05,2.799c-1.525,0 -3.05,-1.779 -2.796,-3.053l1.271,0Zm174.859,-1.521l1.017,0.512l-0.254,8.895l-0.762,-0.512l0,-3.046l-3.558,-1.525l-2.284,2.033l-0.762,-0.254l6.605,-6.103Zm0,1.02l-3.05,2.792l3.05,1.267l0,-4.059Zm-14.487,3.046l2.033,-7.879c3.558,0.512 5.337,1.525 4.829,3.812c-0.254,1.267 -1.271,2.033 -2.796,2.033l1.271,3.304l-0.762,0l-2.033,-4.571c2.287,0.505 3.05,0.505 3.558,-1.02c0.762,-2.033 -2.542,-2.538 -3.304,-2.538l-2.033,7.116l-0.762,-0.258Zm-5.083,-0.508l0.762,-7.625l-2.033,-0.254l0.254,-0.251l4.575,0.251l0,0.512l-2.033,-0.254l-0.762,7.625l-0.762,0l0,-0.004Zm-7.625,-1.017l3.558,-0.254l0,0.759l-4.066,0.512l-0.762,-7.879l0.762,-0.251l0.508,7.113Zm-6.1,1.779l-5.083,-7.37l1.017,-0.254l4.321,6.605l1.525,-7.625l0.762,0l-1.779,8.645l-0.762,0Z" style="fill:#fff22d;stroke:#fff22d;stroke-width:0.35px;"/><rect x="168.027" y="257.143" width="62.268" height="66.334" style="fill:#fff;stroke:#000;stroke-width:0.76px;"/><path d="M211.995,269.342l4.575,-1.017l-2.796,-1.779l0.508,-2.033l-2.542,-0.762l0,-2.033l-2.796,0.254l-1.525,-2.287l-2.033,1.017l-1.779,-1.271l1.271,5.08c4.066,-0.251 4.066,2.037 7.116,4.832Z" style="fill:#c6aa6a;stroke:#000;stroke-width:1.06px;"/><rect x="109.571" y="257.143" width="58.202" height="66.08" style="fill:#cc2229;stroke:#000;stroke-width:0.76px;"/><path d="M149.728,279.509l4.575,0l0,8.641l-1.017,0l0,16.774l2.542,2.287c-1.887,2.448 -3.348,5.196 -4.321,8.129l-29.736,0l0,-9.658l3.812,0l0,-17.533l-1.779,0l0,-8.133l4.575,0l0,-5.083l-2.287,0l0,-4.829l2.033,0l0,2.287l1.525,0l0,-2.287l2.033,0l0,2.287l1.779,0l0,-2.287l1.779,0l0,4.829l-2.033,0l-0.138,4.829l3.696,0l0,-11.691l-2.542,0l0,-5.083l2.033,0l0,2.287l1.525,0l0,-2.287l2.033,0l0,2.287l1.779,0l0,-2.287l1.779,0l0,5.083l-2.542,0l0,11.691l4.321,0l0,-4.829l-2.287,0l0,-4.575l1.783,0l0,2.033l2.033,0l0,-2.033l1.525,0l0,2.033l1.779,0l0,-2.287l1.779,0l0,4.829l-2.037,0l0,4.575Z" style="fill:#fff22d;stroke:#171717;stroke-width:0.35px;"/><path d="M141.849,298.824l8.895,0l0,-6.354c0,-3.05 -8.895,-3.05 -8.895,0l0,6.354Zm-14.741,0l8.895,0l0,-6.354c0,-3.05 -8.895,-3.05 -8.895,0l0,6.354Z" style="fill:#505e86;stroke:#fff22d;stroke-width:0.35px;"/><path d="M167.773,374.312c-8.387,13.463 -16.012,19.566 -33.294,22.111c20.332,7.116 33.803,9.404 67.097,1.013c-15.249,-3.304 -26.178,-12.965 -33.803,-23.125Z" style="fill:#fff;stroke:#000;stroke-width:0.76px;"/><path d="M167.773,382.184c3.304,0 6.1,3.053 6.1,6.612c0,3.812 -2.796,6.859 -6.1,6.859c-3.558,0 -6.354,-3.046 -6.354,-6.859c0,-3.558 2.796,-6.612 6.354,-6.612Z" style="fill:#e5a773;stroke:#000;stroke-width:0.35px;"/><path d="M171.077,398.711c-0.254,-4.066 6.608,-5.087 9.404,-2.545c-2.542,2.545 -6.354,5.846 -9.404,2.545Z" style="fill:#598376;stroke:#000;stroke-width:0.35px;"/><path d="M165.739,395.4c1.271,2.033 1.271,4.066 0,6.103l5.083,0c-2.542,-1.525 -1.779,-4.825 -1.271,-6.103c-0.508,0.512 -2.796,0.512 -3.812,0Z" style="stroke:#000;stroke-width:0.35px;"/><path d="M154.048,395.4c3.812,3.311 6.862,3.565 11.691,3.565c-5.337,-5.591 -8.641,-5.846 -11.691,-3.565Z" style="fill:#598376;stroke:#000;stroke-width:0.35px;"/><path d="M167.264,384.729c1.779,0 2.796,1.779 2.796,4.066c0,2.033 -1.017,3.558 -2.796,3.558c-1.271,0 -2.542,-1.525 -2.542,-3.558c0,-2.287 1.271,-4.066 2.542,-4.066Z" style="fill:#cc2229;stroke:#000;stroke-width:0.35px;"/><path d="M130.92,250.281c0,8.133 74.213,8.895 75.484,-0.762c-5.337,-10.42 -73.451,-9.912 -75.484,0.762Z" style="fill:#fff22d;stroke:#000;stroke-width:1.3px;"/><path d="M223.941,212.92c-0.508,-7.625 -15.758,-13.216 -25.924,-6.608c-5.08,-7.37 -18.553,-11.183 -29.736,-4.575c-6.862,-6.608 -22.366,-5.337 -28.211,3.812c-8.641,-5.337 -25.161,-0.762 -25.161,10.166c6.862,26.686 11.945,23.382 15.249,22.62c14.233,-3.558 54.135,-6.1 78.534,0.762c7.879,0.762 13.979,-12.708 15.249,-26.178Z" style="fill:#cc2229;stroke:#000;stroke-width:0.76px;"/><path d="M134.224,249.772c9.658,-8.387 63.539,-5.337 67.097,-0.254c0.762,7.116 -70.147,5.591 -67.097,0.254Z" style="fill:#cc2229;stroke:#000;stroke-width:1.3px;"/><path d="M206.15,249.772l2.542,-8.641c-22.366,-4.829 -53.118,-5.591 -79.296,-0.254l1.271,8.895c4.575,-10.42 72.688,-9.658 75.484,0Z" style="fill:#fff22d;stroke:#000;stroke-width:1.3px;"/><path d="M128.633,237.827c-1.779,0.762 -2.033,3.05 1.271,2.796c27.703,-4.829 49.814,-4.829 77.263,0.254c0.718,0.233 1.509,0.035 2.033,-0.508c0,-0.508 -0.254,-1.779 -2.284,-2.542c-28.723,-5.337 -55.918,-3.558 -78.283,0Zm-8.387,-6.354c-1.017,-0.512 -1.271,-0.254 -1.271,0.254c0,3.558 4.575,7.625 8.641,7.116c1.525,-1.271 4.829,-4.066 4.829,-5.337c2.542,3.05 9.912,3.812 9.912,-2.287c1.779,3.558 8.895,5.846 13.724,-0.508c4.575,4.066 8.641,4.066 12.708,0.254c2.033,2.033 8.895,5.083 13.979,-0.508c2.542,4.829 7.625,6.1 11.183,2.542c3.05,3.558 6.608,4.829 10.929,2.796c3.558,0.254 2.287,4.575 6.1,3.304c1.779,-0.254 6.354,-3.558 6.1,-6.862c-8.387,7.879 -7.879,3.05 -9.404,0c-4.321,2.542 -10.166,5.083 -13.47,-3.05c-4.575,4.321 -8.133,3.304 -9.658,-3.812c-1.779,3.558 -10.675,10.929 -15.249,-0.762c-1.779,6.354 -8.895,8.895 -13.216,2.796c-1.271,1.525 -7.37,9.912 -13.47,-0.254c-2.796,6.862 -6.1,8.641 -10.675,1.779c-1.271,7.116 -7.625,9.404 -11.691,2.542Zm48.035,-40.665c0.762,0 1.271,0.508 1.271,1.271c0,0.508 -0.512,1.017 -1.271,1.017c-0.508,0 -1.017,-0.512 -1.017,-1.017c0,-0.762 0.508,-1.271 1.017,-1.271Zm0,4.066c1.017,0 1.525,0.254 1.525,1.017c0,0.508 -0.508,1.271 -1.525,1.271c-0.508,0 -1.271,-0.762 -1.271,-1.271c0,-0.762 0.762,-1.017 1.271,-1.017Zm0,3.558c1.271,0 2.033,0.762 2.033,1.779c0,1.017 -0.762,1.525 -2.033,1.525c-0.762,0 -1.779,-0.508 -1.779,-1.525c0,-1.017 1.017,-1.779 1.779,-1.779Zm0,4.575c1.779,0 2.796,1.017 2.796,2.033c0,1.271 -1.017,2.033 -2.796,2.033c-1.271,0 -2.542,-0.762 -2.542,-2.033c0,-1.017 1.271,-2.033 2.542,-2.033Zm60.743,14.233c-1.779,0 -3.05,1.271 -3.05,2.542c0,1.271 1.271,2.542 3.05,2.542c1.525,0 2.796,-1.271 2.796,-2.542c0,-1.271 -1.271,-2.542 -2.796,-2.542Zm2.033,-6.862c-1.525,0 -2.796,1.017 -2.796,2.287c0,1.525 1.271,2.542 2.796,2.542c1.525,0 3.05,-1.017 3.05,-2.542c0,-1.271 -1.525,-2.287 -3.05,-2.287Zm0.762,-5.846c-1.779,0 -3.05,1.017 -3.05,2.287c0,1.525 1.271,2.796 3.05,2.796c1.525,0 3.05,-1.271 3.05,-2.796c0,-1.271 -1.525,-2.287 -3.05,-2.287Zm-1.525,-6.354c-1.779,0 -3.05,1.271 -3.05,2.542c0,1.271 1.271,2.542 3.05,2.542c1.525,0 3.05,-1.271 3.05,-2.542c0,-1.271 -1.525,-2.542 -3.05,-2.542Zm-5.591,-4.829c-1.779,0 -3.05,1.271 -3.05,2.542c0,1.525 1.271,2.542 3.05,2.542c1.267,0 2.796,-1.017 2.796,-2.542c0,-1.271 -1.525,-2.542 -2.796,-2.542Zm-6.354,-1.779c-1.525,0 -2.796,1.017 -2.796,2.287c0,1.525 1.271,2.542 2.796,2.542c1.525,0 3.05,-1.017 3.05,-2.542c0,-1.271 -1.525,-2.287 -3.05,-2.287Zm-6.1,-1.017c-1.525,0 -2.796,1.017 -2.796,2.542c0,1.271 1.271,2.542 2.796,2.542c1.525,0 3.05,-1.271 3.05,-2.542c0,-1.525 -1.525,-2.542 -3.05,-2.542Zm-5.591,-0.508c-1.779,0 -3.05,1.271 -3.05,2.542c0,1.271 1.271,2.542 3.05,2.542c1.271,0 2.796,-1.271 2.796,-2.542c0,-1.271 -1.525,-2.542 -2.796,-2.542Zm-8.641,18.299c-1.017,0 -2.033,0.508 -2.033,1.779c0,1.017 1.017,1.779 2.033,1.779c1.017,0 2.287,-0.762 2.287,-1.779c0,-1.271 -1.271,-1.779 -2.287,-1.779Zm1.525,-4.321c-1.017,0 -2.033,0.762 -2.033,1.779c0,1.017 1.017,1.779 2.033,1.779c1.017,0 2.033,-0.762 2.033,-1.779c0,-1.017 -1.017,-1.779 -2.033,-1.779Zm1.525,-5.337c-1.271,0 -2.287,1.017 -2.287,2.033c0,1.271 1.017,2.287 2.287,2.287c1.271,0 2.542,-1.017 2.542,-2.287c0,-1.017 -1.271,-2.033 -2.542,-2.033Zm-0.762,-6.354c-1.271,0 -2.542,1.017 -2.542,2.033c0,1.525 1.271,2.287 2.542,2.287c1.271,0 2.284,-0.762 2.284,-2.287c0.004,-1.017 -1.013,-2.033 -2.284,-2.033Zm-4.575,-5.083c-1.779,0 -3.05,1.017 -3.05,2.542c0,1.525 1.271,2.542 3.05,2.542c1.267,0 2.796,-1.017 2.796,-2.542c0,-1.525 -1.525,-2.542 -2.796,-2.542Zm-6.862,-2.542c-1.525,0 -3.05,1.017 -3.05,2.284c0,1.528 1.525,2.796 3.05,2.796c1.525,0 3.05,-1.267 3.05,-2.796c0,-1.267 -1.525,-2.284 -3.05,-2.284Zm-6.354,-0.762c-1.525,0 -2.796,1.271 -2.796,2.542c0,1.525 1.271,2.542 2.796,2.542c1.525,0 3.05,-1.017 3.05,-2.542c0,-1.271 -1.525,-2.542 -3.05,-2.542Zm-6.1,0.254c-1.779,0 -3.05,1.017 -3.05,2.542c0,1.525 1.271,2.542 3.05,2.542c1.271,0 3.05,-1.017 3.05,-2.542c0,-1.525 -1.779,-2.542 -3.05,-2.542Zm-16.012,0c1.525,0 2.796,1.017 2.796,2.542c0,1.525 -1.271,2.542 -2.796,2.542c-1.525,0 -2.796,-1.017 -2.796,-2.542c0,-1.525 1.271,-2.542 2.796,-2.542Zm-6.1,-0.254c1.525,0 2.796,1.271 2.796,2.542c0,1.525 -1.271,2.542 -2.796,2.542c-1.525,0 -2.796,-1.017 -2.796,-2.542c0,-1.271 1.271,-2.542 2.796,-2.542Zm-6.354,0.762c1.525,0 2.796,1.017 2.796,2.284c0,1.528 -1.271,2.796 -2.796,2.796c-1.529,-0.011 -2.784,-1.266 -2.796,-2.796c0,-1.267 1.271,-2.284 2.796,-2.284Zm-6.862,2.542c1.779,0 3.05,1.017 3.05,2.542c0,1.525 -1.271,2.542 -3.05,2.542c-1.393,-0.004 -2.538,-1.149 -2.542,-2.542c0,-1.525 1.271,-2.542 2.542,-2.542Zm-4.575,5.083c1.271,0 2.287,1.017 2.287,2.033c0,1.525 -1.017,2.287 -2.287,2.287c-1.271,0 -2.287,-0.762 -2.287,-2.287c0,-1.017 1.017,-2.033 2.287,-2.033Zm-1.017,6.354c1.525,0 2.542,1.017 2.542,2.033c0,1.271 -1.017,2.287 -2.542,2.287c-1.271,0 -2.033,-1.017 -2.033,-2.287c0,-1.017 0.762,-2.033 2.033,-2.033Zm1.779,5.337c1.017,0 2.033,0.762 2.033,1.779c0,1.017 -1.017,1.779 -2.033,1.779c-1.017,0 -2.033,-0.762 -2.033,-1.779c0,-1.017 1.017,-1.779 2.033,-1.779Zm1.525,4.321c1.017,0 1.779,0.508 1.779,1.779c0,0.014 0.001,0.029 0.001,0.043c0,0.953 -0.784,1.737 -1.737,1.737c-0.014,0 -0.029,-0 -0.043,-0.001c-1.271,-0 -2.033,-0.762 -2.033,-1.779c0,-1.271 0.762,-1.779 2.033,-1.779Zm-8.641,-18.299c1.779,0 3.05,1.271 3.05,2.542c0,1.271 -1.271,2.542 -3.05,2.542c-1.525,0 -2.796,-1.271 -2.796,-2.542c0,-1.271 1.271,-2.542 2.796,-2.542Zm-5.846,0.508c1.779,0 3.05,1.017 3.05,2.542c0,1.271 -1.271,2.542 -3.05,2.542c-1.271,0 -2.542,-1.271 -2.542,-2.542c0,-1.525 1.271,-2.542 2.542,-2.542Zm-5.846,1.017c1.525,0 2.796,1.017 2.796,2.287c0,1.525 -1.271,2.542 -2.796,2.542c-1.525,0 -3.05,-1.017 -3.05,-2.542c0,-1.271 1.525,-2.287 3.05,-2.287Zm-11.945,6.608c1.525,0 2.796,1.271 2.796,2.542c0,1.271 -1.271,2.542 -2.796,2.542c-1.525,0 -2.796,-1.271 -2.796,-2.542c0,-1.271 1.271,-2.542 2.796,-2.542Zm5.591,-4.829c1.779,0 3.05,1.271 3.05,2.542c0,1.525 -1.271,2.542 -3.05,2.542c-1.525,0 -2.796,-1.017 -2.796,-2.542c0,-1.271 1.271,-2.542 2.796,-2.542Zm-6.354,17.028c1.525,0 2.796,1.017 2.796,2.287c0,1.525 -1.271,2.542 -2.796,2.542c-1.525,0 -2.796,-1.017 -2.796,-2.542c0,-1.271 1.271,-2.287 2.796,-2.287Zm-0.762,-5.846c1.779,0 3.05,1.017 3.05,2.287c0,1.525 -1.271,2.796 -3.05,2.796c-1.529,-0.013 -2.782,-1.267 -2.796,-2.796c0,-1.271 1.271,-2.287 2.796,-2.287Zm2.796,12.708c1.525,0 2.796,1.271 2.796,2.542c0,1.271 -1.271,2.542 -2.796,2.542c-1.525,0 -2.796,-1.271 -2.796,-2.542c0,-1.271 1.271,-2.542 2.796,-2.542Zm115.895,4.321l-2.033,-5.846c12.454,-11.945 -5.337,-20.841 -18.045,-18.299l-0.254,-2.033c11.945,-0.254 34.565,4.324 19.57,20.587l2.287,4.829l-1.525,0.762Zm-27.957,-7.116l-2.796,-6.608c11.691,-12.962 -11.437,-21.095 -18.553,-14.487l0,-2.033c10.166,-7.116 32.786,3.558 20.332,17.028l2.542,3.812l-1.525,2.287Zm-21.349,-20.841c-0.508,4.829 -3.558,10.929 2.033,14.995l-5.337,4.066l-0.762,-1.271l3.558,-2.542c-3.812,-4.829 -1.779,-13.216 0.508,-17.537l0,2.287Zm-12.199,0c0.762,4.829 4.066,10.929 -1.271,14.995l5.083,4.066l0.508,-1.271l-3.558,-2.542c4.066,-4.829 1.779,-13.216 -0.762,-17.537l0,2.287Zm-21.095,20.841l2.542,-6.608c-11.183,-12.962 11.437,-21.095 18.807,-14.487l0,-2.033c-10.42,-7.116 -32.786,3.558 -20.587,17.028l-2.033,3.812l1.271,2.287Zm-28.211,7.116l2.033,-5.846c-12.199,-11.945 5.591,-20.841 18.045,-18.299l0.254,-2.033c-11.691,-0.254 -34.057,4.324 -19.57,20.587l-2.033,4.829l1.271,0.762Zm56.422,-45.24c7.37,4.829 4.066,9.912 0,13.979c-2.542,-2.287 -4.829,-3.304 -4.829,-7.116c0.254,-3.304 1.271,-5.337 4.829,-6.862Zm0.254,8.133l0,-10.675l2.796,0l0,-1.525l-2.796,0l0,-2.287l-1.525,0l0,2.542l-2.542,0l0,1.271l2.796,0l0,10.675l-3.812,0l0.254,1.017l8.133,0l0.508,-1.017l-3.812,0Z" style="fill:#fff;stroke:#000;stroke-width:0.35px;"/><path d="M230.549,227.661c-2.033,-4.829 -9.404,-5.591 -11.183,-0.254c-0.762,1.525 -2.542,0.254 -4.575,-1.017c0.762,1.525 0.512,2.033 -0.762,2.542c-0.508,0 -2.033,0.254 -3.05,0.254c1.017,0.762 1.271,1.017 2.542,2.287c-0.762,0.508 -2.033,1.017 -2.542,1.779c1.271,-0.254 5.083,-1.017 6.608,-0.508c0,-6.608 10.166,-5.083 12.962,-5.083Zm-30.499,2.287l-1.017,-2.542l5.083,-0.762l-4.321,-1.779l2.542,-2.287l-5.846,0.254l3.05,-5.591l-3.558,0.508l-1.271,-3.304l-2.287,3.05l-2.796,-1.525l1.017,6.103l-4.829,-1.783l1.525,3.05l-4.575,0.762l4.066,2.033l-1.779,2.033l6.354,0.254l8.641,1.525Zm-30.753,-5.337l-9.15,1.525l1.779,-2.287l-7.116,-2.542l6.608,-1.271l-2.033,-3.558l6.1,2.796l-2.542,-8.133l3.558,1.779l1.779,-5.083l2.287,5.083l3.304,-2.542l-1.779,9.404l6.862,-2.287l-3.304,3.304l6.354,1.779l-5.591,1.779l1.271,2.796l-8.387,-2.542Zm-34.819,4.066l0.512,-2.542l-5.083,-0.762l4.321,-1.779l-2.542,-2.287l6.103,0.254l-3.05,-5.591l3.304,0.512l1.017,-3.308l2.542,2.796l2.796,-1.271l-1.271,6.1l4.829,-1.779l-1.271,3.05l4.321,0.762l-4.066,2.033l1.779,2.033l-6.354,0.254l-7.886,1.525Zm-27.449,-2.796c2.287,-4.829 9.15,-5.588 10.929,-0.254c0.762,1.525 2.542,0.254 4.575,-1.017c-0.762,1.525 -0.508,2.033 0.762,2.542c0.508,0 2.033,0.254 2.796,0.254c-0.762,0.762 -0.762,1.017 -1.779,2.287c0.508,0.508 1.779,1.017 2.287,1.779c-1.271,-0.512 -4.829,-1.271 -6.608,-0.512c-0.254,-6.605 -10.166,-5.08 -12.962,-5.08Z" style="fill:#fff22d;stroke:#000;stroke-width:0.35px;"/><path d="M117.45,228.169c-3.558,0 -4.066,1.017 -3.304,3.308c2.033,1.525 4.575,0.762 4.575,-2.287c0,-0.766 -1.017,-1.02 -1.271,-1.02Z" style="fill:#cc2229;stroke:#000;stroke-width:0.35px;"/><path d="M130.158,225.882c-5.846,0 -0.508,7.116 1.779,2.287c0,-1.271 -1.017,-2.287 -1.779,-2.287Z" style="fill:#fff;stroke:#000;stroke-width:0.35px;"/><path d="M140.07,221.053c-2.033,2.033 -1.017,6.354 2.796,4.829c3.05,-1.525 -1.779,-5.083 -2.796,-4.829Z" style="fill:#cc2229;stroke:#000;stroke-width:0.35px;"/><path d="M155.827,221.815c-1.525,-0.762 -4.066,1.525 -2.796,3.05c4.575,3.558 5.337,-1.271 2.796,-3.05Z" style="fill:#fff;stroke:#000;stroke-width:0.35px;"/><path d="M169.806,219.02c-0.762,0 -3.558,0 -3.812,1.525c-0.254,2.796 3.812,4.066 5.591,1.779c0,-1.525 -0.508,-2.542 -1.779,-3.304Z" style="fill:#cc2229;stroke:#000;stroke-width:0.35px;"/><path d="M182.768,222.578c-6.354,0 0,6.354 2.033,2.033c0,-0.508 -1.017,-2.033 -2.033,-2.033Z" style="fill:#fff;stroke:#000;stroke-width:0.35px;"/><path d="M193.95,222.578c2.287,1.779 1.525,5.846 -3.05,4.829c-2.542,-1.779 1.779,-5.083 3.05,-4.829Z" style="fill:#cc2229;stroke:#000;stroke-width:0.35px;"/><path d="M207.167,227.407c5.591,0 0,6.608 -1.779,1.779c0,-1.017 0.254,-1.779 1.779,-1.779Z" style="fill:#fff;stroke:#000;stroke-width:0.35px;"/><path d="M219.62,230.202c3.812,0 4.829,1.271 3.812,2.796c-1.525,2.033 -4.829,1.017 -4.829,-2.287c0,-0.508 0.762,-0.508 1.017,-0.508Z" style="fill:#cc2229;stroke:#000;stroke-width:0.35px;"/><path d="M137.782,241.131c1.017,-0.254 2.284,0 2.284,1.017c0,0.762 -0.762,1.779 -1.779,1.779c-1.017,0.508 -2.033,0 -2.033,-0.508c-0.251,-1.017 0.512,-1.779 1.528,-2.287Zm61.251,0c-0.762,-0.254 -1.525,0 -1.779,1.017c0,0.762 0.508,1.779 1.525,1.779c0.762,0.508 1.525,0 1.525,-0.508c0.254,-1.017 -0.508,-1.779 -1.271,-2.287Zm-40.665,-2.033c0.762,0 1.525,0.762 1.525,1.525c0,0.762 -0.762,1.525 -1.525,1.525c-0.762,0 -1.525,-0.762 -1.525,-1.525c0,-0.762 0.762,-1.525 1.525,-1.525Zm21.095,-0.762c-1.017,0 -1.779,0.762 -1.779,1.525c0,0.762 0.762,1.271 1.779,1.271c0.762,0 1.525,-0.508 1.525,-1.271c-0.056,-0.814 -0.711,-1.469 -1.525,-1.525Z" style="fill:#fff;stroke:#000;stroke-width:0.35px;"/><path d="M147.948,239.352c3.05,-0.254 5.337,0 5.591,0.762c0,0.762 -2.287,1.779 -5.337,2.287c-2.796,0.254 -5.337,0 -5.337,-0.762c-0.254,-0.762 2.033,-1.779 5.083,-2.287Zm41.681,0c-2.796,-0.254 -5.337,0 -5.337,0.762c-0.254,0.762 2.033,1.779 5.083,2.287c3.05,0.254 5.337,0 5.591,-0.762c0,-0.762 -2.287,-1.779 -5.337,-2.287Z" style="fill:#33a457;stroke:#000;stroke-width:0.35px;"/><path d="M169.043,237.827c2.796,0.254 5.337,1.017 5.337,1.779c0,0.762 -2.542,1.271 -5.591,1.271c-3.05,-0.254 -5.337,-0.762 -5.337,-1.779c0,-0.762 2.542,-1.271 5.591,-1.271Zm-39.394,4.321l-2.542,3.05l3.05,1.779l2.542,-3.05l-3.05,-1.779Zm78.534,0l2.287,3.05l-3.05,1.779l-2.542,-3.05l3.304,-1.779Z" style="fill:#cc2229;stroke:#000;stroke-width:0.35px;"/><path d="M266.385,266.801l0,2.542l-17.283,0l0,-2.542l17.283,0Zm3.05,-4.575l-3.304,4.575l-17.028,0l-3.558,-4.575l23.891,0Zm1.017,-6.862l-25.67,0l0,6.862l25.67,0l0,-6.862Zm-204.086,121.483l0,7.882l26.94,0l0,-7.882l-26.94,0Zm5.591,-3.558l-3.558,3.558l23.128,0l-3.304,-3.558l-16.266,0Zm-1.271,-2.033l18.553,0c0.508,0 1.271,0.254 1.271,1.274c0,0.759 -0.762,0.759 -1.271,0.759l-18.553,0c-0.762,0 -1.017,0 -1.017,-0.759c0,-1.017 0.254,-1.274 1.017,-1.274Z" style="fill:#c6aa6a;stroke:#000;stroke-width:0.57px;"/><path d="M167.773,323.477l62.268,0l0,50.831c1.017,13.216 -17.537,18.807 -29.228,23.379c-17.283,-5.337 -24.145,-12.45 -33.04,-23.379l0,-50.831Z" style="fill:#cc2229;stroke:#000;stroke-width:0.76px;"/><path d="M173.618,345.335l-0.254,0l-1.525,-1.525l0,-5.591l1.779,-2.033l0,-8.895l9.15,0l0,-0.254l1.525,-1.525l5.846,0l2.033,1.525l0,0.254l4.394,0c0.539,-0.662 1.414,-1.02 2.468,-1.02c0.904,0 1.807,0.358 2.393,1.02l6.244,0l0,-0.258l1.525,-1.779l5.846,0l2.037,1.783l0,0.254l6.354,0l0,8.895l1.779,1.779l0,5.846l-1.525,1.525l-0.254,0l0,1.874c0.636,0.474 1.017,1.218 1.017,2.192c0,0.834 -0.381,1.594 -1.017,2.11l0,1.956l1.779,1.779l0,5.846l-1.525,1.779l-0.254,0l0,5.337c-0.105,4.519 -2.383,8.385 -5.791,11.366l0.453,0.83l-1.017,2.291l-4.829,2.799l-2.287,-0.512l-0.323,-0.701c-2.723,1.039 -5.609,1.689 -8.421,1.896c-0.541,0.661 -1.404,1.092 -2.439,1.092c-1.078,0 -1.97,-0.468 -2.505,-1.176c-1.869,-0.188 -3.794,-0.543 -5.697,-1.05l-0.439,0.952l-2.033,0.766l-5.083,-2.287l-1.271,-2.538l0.196,-0.431c-4.841,-2.844 -8.329,-6.82 -8.329,-11.518l-0,-7.116l-0.254,0l-1.525,-1.525l0,-5.846l1.779,-2.033l0,-1.085c-0.9,-0.484 -1.525,-1.48 -1.525,-2.728c0.009,-1.072 0.628,-2.01 1.525,-2.48l0,-1.841Zm23.891,-11.441l-1.271,1.528l0,4.317l1.017,1.274l3.05,0l1.017,-1.02l0,-4.825l-1.271,-1.274l-2.542,0Zm-23.636,3.311l-1.271,1.521l0,4.317l1.271,1.274l2.542,0l1.271,-1.02l0,-4.825l-1.271,-1.267l-2.542,0Zm10.929,1.267l0.508,1.779l3.05,3.046l1.779,0l1.779,-2.28l-0.254,-1.532l-3.304,-3.046l-2.033,0.254l-1.525,1.779Zm18.983,12.199l5.009,4.285l2.186,-0.219l4.575,3.812l0,2.19l4.575,3.913l0,-1.783l-1.525,-1.779l0,-5.846l1.525,-1.525l0,-1.762c-0.646,-0.262 -1.155,-0.721 -1.46,-1.288l-1.59,0l0,0.508l-1.779,1.779l-6.103,0l-1.525,-1.525l0,-0.762l-3.888,0Zm-9.349,-3.283l-3.863,-3.321l-2.213,0l-4.066,-3.558l-0.742,-2.478l-6.882,-5.916l0,4.07l1.779,1.779l0,5.846l-1.525,1.525l-0.254,0l0,2.026c0.32,0.207 0.589,0.469 0.796,0.77l5.303,0l0,-0.508l1.525,-1.779l5.846,0l2.033,1.779l0,0.508l1.99,0c0.073,-0.257 0.165,-0.505 0.274,-0.742Zm-0.392,3.283l-1.871,0l0,0.254l-2.033,1.779l-5.846,0l-1.525,-1.525l0,-0.508l-4.981,0c-0.201,0.636 -0.592,1.158 -1.119,1.514l0,1.282l2.033,2.033l0,6.103l-1.779,1.267l-0.254,0l0,2.542l6.392,-5.384l0.216,-1.732l4.321,-3.812l1.845,0.168l4.618,-3.891c-0.006,-0.03 -0.012,-0.06 -0.017,-0.09Zm2.27,3.384l-3.948,3.384l-0.194,2.131l-4.321,3.558l-2.123,0l-8.297,7.113c0,2.96 2.391,6.217 5.955,8.787l2.178,-0.65l5.337,2.28l0.762,2.033l-0.104,0.226c1.4,0.381 2.835,0.638 4.27,0.742c0.205,-0.785 0.715,-1.356 1.426,-1.678l0,-8.69l-0.508,0l-1.525,-1.525l0,-5.846l1.779,-1.779l0.254,0l-0,-9.65c-0.334,-0.111 -0.649,-0.258 -0.942,-0.436Zm3.992,0.403l0,9.938l1.525,1.525l0,5.846l-1.525,1.525l0,8.689c0.563,0.255 1.001,0.666 1.26,1.216c2.35,-0.096 4.702,-0.619 6.905,-1.45l-0.032,-0.068l0.254,-2.033l5.337,-2.799l1.752,0.528c2.657,-2.38 4.348,-5.202 4.348,-7.899l-6.8,-5.846l-2.35,0l-4.321,-3.558l-0.239,-2.381l-4.707,-4.046c-0.424,0.349 -0.9,0.626 -1.408,0.813Zm3.202,-3.786l0.278,-0l-0.24,-0.205c-0.011,0.069 -0.024,0.137 -0.037,0.205Zm-0.131,-2.542l4.296,0l0,-0.254l1.525,-1.525l5.846,0l2.033,1.779l1.539,0c0.297,-0.632 0.828,-1.081 1.515,-1.32l0,-1.475l-1.779,-1.525l0,-5.591l1.779,-2.033l0,-2.545l-4.376,3.751l0.055,0.062l-0.508,2.799l-4.321,3.304l-2.287,0l-0.054,-0.066l-5.295,4.539c0.011,0.034 0.022,0.067 0.033,0.101Zm-2.564,-3.056l5.649,-4.759l0.198,-1.585l4.321,-3.558l1.587,0l6.038,-5.087l-1.528,0l-1.776,1.776l-6.103,0l-1.525,-1.525l0,-0.251l-5.819,0c-0.303,0.648 -0.875,1.181 -1.547,1.489l0,1.307l1.779,1.779l0,5.846l-1.525,1.779l-0.254,0l0,2.567c0.173,0.064 0.342,0.138 0.507,0.222Zm-3.557,-0.256l0,-2.533l-0.254,0l-1.525,-1.779l0,-5.591l1.779,-2.033l0,-1.522c-0.411,-0.265 -0.739,-0.62 -0.958,-1.033l-4.125,-0.06l0,0.074l-2.033,1.779l-5.846,0l-1.525,-1.525l0,-0.464l-3.05,-0.044l6.472,5.536l2.17,-0.192l4.321,3.805l0.238,2.142l4.116,3.521c0.073,-0.028 0.146,-0.055 0.221,-0.08Zm17.283,-6.854l-1.525,-1.779l-2.033,-0.254l-3.304,3.053l-0.254,1.525l1.779,2.287l1.779,0l3.05,-2.799l0.508,-2.033Zm1.271,-10.675l-1.525,-1.267l-4.066,0l-1.525,1.013l0,3.046l1.271,1.02l4.575,0l1.271,-1.267l0,-2.545Zm-24.907,0.254l-1.525,-1.274l-4.066,0l-1.525,1.02l0,2.792l1.271,1.274l4.575,0l1.271,-1.274l0,-2.538Zm29.482,9.661l-1.271,1.521l0,4.317l1.271,1.274l2.796,0l1.017,-1.02l0,-4.825l-1.271,-1.267l-2.542,0Zm-28.974,20.075l-1.779,-1.779l-1.779,-0.254l-3.304,3.046l-0.254,1.525l1.525,2.287l2.033,0l3.05,-2.792l0.508,-2.033Zm5.846,7.882l-1.271,1.521l0,4.317l1.017,1.274l2.796,0l1.271,-1.274l0,-4.571l-1.525,-1.267l-2.287,0Zm-23.382,-10.424l-1.271,1.525l0,4.066l1.271,1.274l2.542,0l1.271,-1.02l0,-4.578l-1.271,-1.267l-2.542,0Zm9.15,27.445l0.762,1.536l4.066,1.779l1.525,-0.512l1.017,-2.545l-0.508,-1.525l-4.066,-1.779l-1.779,0.766l-1.017,2.28Zm7.879,-34.05l-1.525,-1.278l-4.066,0l-1.525,1.02l0,2.792l1.271,1.02l4.575,0l1.271,-1.274l0,-2.28Zm26.178,32.525l-1.271,-2.033l-2.033,-0.759l-3.812,2.033l-0.508,1.525l1.271,2.545l1.525,0.505l3.812,-2.033l1.017,-1.783Zm-1.271,-32.271l-1.525,-1.274l-4.066,0l-1.525,1.274l0,2.538l1.271,1.274l4.575,0l1.271,-1.274l0,-2.538Zm-8.641,9.404l0.762,2.026l3.304,2.545l1.525,0l2.033,-2.033l-0.508,-1.779l-3.304,-2.545l-2.033,0l-1.779,1.786Zm13.47,-3.053l-1.271,1.267l0,4.324l1.017,1.274l3.05,0l1.017,-1.274l0,-4.324l-1.271,-1.267l-2.542,0Z" style="fill:#ffc400;"/><path d="M167.518,257.397l0.254,116.915c-8.133,12.45 -13.47,18.807 -33.04,22.366m-25.416,-73.454l120.724,0.254m0,52.102l0,-118.182l-120.724,0l0,116.915c6.862,21.091 41.173,28.716 57.439,28.716c16.52,-0.004 64.047,-8.641 63.285,-27.449Z" style="fill:none;fill-rule:nonzero;stroke:#000;stroke-width:0.35px;"/><path d="M168.281,300.092c9.912,0 18.045,10.678 18.045,23.64c0,13.216 -8.133,23.891 -18.045,23.891c-9.912,0 -18.045,-10.671 -18.045,-23.891c0,-12.958 8.133,-23.64 18.045,-23.64Z" style="fill:#cc2229;stroke:#000;stroke-width:0.35px;"/><path d="M168.027,307.215c7.116,0 12.962,7.37 12.962,16.52c0,9.404 -5.846,17.028 -12.962,17.028c-6.862,0 -12.708,-7.625 -12.708,-17.028c0,-9.15 5.846,-16.52 12.708,-16.52Z" style="stroke:#000;stroke-width:0.35px;"/><path d="M162.435,324.49c2.287,0 2.796,-2.792 2.033,-3.304c-0.508,-0.512 0,-1.013 0.254,-1.267c0.508,-1.02 2.287,-1.02 3.05,0c0,-2.287 -1.779,-3.812 -3.558,-2.545c0,-1.525 0,-4.324 -1.779,-5.591c-1.525,1.267 -1.779,4.066 -1.525,5.591c-2.033,-0.759 -3.812,0.254 -3.812,2.545c1.017,-1.02 2.542,-1.02 3.304,0c0.254,0.254 0.762,0.759 0,1.267c-0.762,0.508 0,3.304 2.033,3.304Zm11.437,0c2.033,0 2.542,-2.792 1.779,-3.304c-0.508,-0.512 0,-1.013 0.254,-1.267c0.508,-1.02 2.287,-1.02 3.304,0c0,-2.287 -1.779,-3.812 -3.812,-2.545c0.254,-1.525 0,-4.324 -1.525,-5.591c-1.779,1.267 -1.779,4.066 -1.779,5.591c-2.033,-0.759 -3.812,0.254 -3.812,2.545c1.017,-1.02 2.796,-1.02 3.304,0c0.254,0.254 0.762,0.759 0.254,1.267c-1.017,0.512 -0.254,3.304 2.033,3.304Zm-6.1,14.236c2.033,0 2.796,-2.545 2.033,-3.304c-0.508,-0.254 0,-1.02 0.254,-1.274c0.508,-0.759 2.287,-0.759 3.304,0c0,-2.287 -2.033,-3.812 -3.812,-2.287c0,-1.525 0,-4.571 -1.779,-5.839c-1.525,1.267 -1.525,4.317 -1.525,5.839c-2.033,-0.759 -3.812,0 -3.812,2.287c1.017,-0.759 2.796,-0.759 3.304,0c0.254,0.254 0.762,1.02 0.254,1.274c-1.017,0.505 -0.254,3.304 1.779,3.304Z" style="fill:#fff;stroke:#000;stroke-width:0.35px;"/><path d="M168.027,374.312c1.779,3.558 14.741,19.821 34.057,23.125" style="fill:none;fill-rule:nonzero;stroke:#000;stroke-width:0.35px;"/><path d="M138.799,302.125l0.254,0c0.031,-0 0.062,-0.001 0.093,-0.001c3.156,0 5.754,2.597 5.754,5.754c0,0.031 -0,0.062 -0.001,0.093l0,7.116l-12.199,0l0,-7.116c0,-3.3 2.796,-5.846 6.1,-5.846Z" style="fill:#fff22d;stroke:#000;stroke-width:0.35px;"/><path d="M138.778,303.657c0.007,0 0.275,0 0.275,0c2.542,0 4.321,2.026 4.321,4.571l0,7.116l-9.15,0l0,-7.116c-0,-0.006 -0,-0.012 -0,-0.018c0,-2.498 2.056,-4.554 4.554,-4.554Z" style="fill:#505e86;"/><path d="M142.103,305.436l1.779,-2.033c1.271,0.759 1.779,2.28 1.779,3.304c-0.762,0 -1.779,0 -2.796,0.254l-0.762,-1.525Zm-5.591,-3.565c0.508,0.766 0.762,1.274 1.017,2.287l3.05,0l1.017,-2.287c-1.525,-0.759 -3.304,-0.759 -5.083,0Zm-0.762,3.812l-1.779,-2.538c-0.762,1.013 -1.525,1.779 -1.779,3.558l3.05,0c0,-0.508 0.254,-0.766 0.508,-1.02Z" style="fill:#fff22d;stroke:#000;stroke-width:0.35px;"/><path d="M195.984,266.801c-0.254,1.271 1.017,2.033 2.033,3.304c-4.066,1.271 -5.08,-0.762 -7.116,-3.304c-0.254,1.525 0,1.779 0.762,3.05c2.033,2.542 3.304,3.558 7.37,3.304l0,0.254c0,0.254 0.254,2.542 0,3.05c-3.304,1.525 -6.608,-1.525 -8.641,-3.558c-1.017,-1.271 -1.017,-1.525 -2.542,-5.591c-0.762,-1.779 -6.862,-1.525 -7.625,0.508c1.017,-0.254 2.542,-0.762 3.308,0.254c-1.271,0 -4.829,0.254 -4.829,3.304c0.762,-1.017 3.812,-0.508 4.829,-0.508c-2.287,0.762 -4.066,0.508 -3.558,3.304c4.321,-2.542 4.066,3.05 5.846,4.321c2.796,1.779 5.337,1.017 7.12,4.575c-1.017,0.762 -2.796,2.287 -2.796,4.066c-6.1,-4.575 -8.641,-0.254 -8.641,1.017c1.017,0 2.542,-0.762 3.558,0.254c-2.796,1.271 -4.575,3.05 -2.542,7.37c0.508,-1.274 2.033,-4.324 3.812,-4.324c-3.558,3.304 1.779,7.116 3.812,7.116c-2.796,-1.267 -1.779,-7.367 2.287,-7.367c0.254,0.254 0.254,1.017 1.271,1.521c2.287,0 0.762,-3.304 3.304,-3.812c0.254,2.542 2.542,4.321 6.103,4.066c1.525,0 2.796,1.271 3.558,2.287c-1.779,2.033 -6.1,-2.796 -7.37,0.254c-1.017,2.033 0,3.812 2.287,7.37c-0.762,1.013 -2.542,0.766 -3.05,-0.254c-1.525,-3.558 -9.404,-0.766 -9.15,2.545c0.762,-1.02 2.796,-1.274 3.812,-1.02c-2.796,0 -2.542,5.087 -1.017,6.612c0.254,-1.779 1.017,-3.558 2.796,-3.812c0.254,1.525 -0.762,1.779 -1.525,3.304c-1.271,2.033 -1.017,5.337 1.779,5.337c-0.762,-0.759 -0.508,-4.066 2.033,-4.066c3.05,-0.759 4.321,2.799 5.337,1.02c1.779,-1.779 4.324,-8.895 4.324,-11.949c-0.254,3.304 3.812,7.116 4.829,7.116c1.525,0.254 3.812,1.274 2.796,3.053c-1.779,1.525 -8.641,-0.512 -9.15,5.08c1.528,-1.267 3.812,-1.525 5.083,-1.525c-1.779,1.267 -2.033,3.046 -0.508,5.08c1.017,-2.792 2.542,-2.287 2.796,-3.046c2.542,0 3.812,0.254 3.812,3.812c3.05,-1.779 1.525,-5.591 1.271,-7.37c2.796,-4.066 5.337,-7.879 2.796,-8.391c-1.017,0 -3.304,-1.013 -3.812,-2.033c-0.508,-0.512 -1.017,-5.337 -0.762,-6.35c3.304,2.033 4.066,1.013 6.1,-0.766c2.542,-2.033 -0.254,-15.249 -1.525,-19.57c1.017,-4.829 3.304,-3.812 4.829,-7.625l-2.287,0.762l1.528,-4.575l-4.324,3.05l0,-2.287c-3.558,2.796 -1.271,7.879 -1.525,9.912c0,0 3.558,18.045 0.762,19.065c-0.762,2.033 -5.591,-0.512 -6.354,-2.545c-0.508,-0.508 -1.017,-2.287 -1.017,-5.083c0.508,0.254 -1.017,-6.862 -0.762,-7.37c0.508,-0.254 2.287,1.017 3.558,3.558c0.762,-3.304 -2.542,-6.1 -2.542,-6.862c0,-0.762 2.796,1.017 3.812,3.304c0,-1.779 -0.254,-4.575 -3.304,-5.591c-0.254,-1.017 2.287,-0.254 4.066,2.287c-0.508,-3.558 -3.812,-5.337 -4.321,-5.591c-3.558,-4.829 -5.591,-5.337 -8.387,-6.1c-3.318,1.274 -4.081,2.037 -8.401,2.799Z" style="fill:#ca0088;stroke:#000;stroke-width:1.3px;"/><path d="M199.288,276.459c-1.525,2.796 -3.558,4.575 -6.354,6.862m0.508,-0.254c-1.525,1.779 -1.017,3.05 0,4.321c0.762,-2.287 2.542,-3.304 4.575,-4.066c-1.525,3.304 1.779,3.558 3.308,5.083c-2.033,-2.287 0.762,-4.321 0.762,-5.846c0.254,0.508 1.271,5.846 5.337,5.337c-1.271,-1.525 -0.762,-5.337 -0.762,-6.608c0.508,0.508 4.066,1.525 5.591,5.591" style="fill:none;fill-rule:nonzero;stroke:#000;stroke-width:1.3px;"/><path d="M198.779,273.409c4.829,-1.779 2.033,-4.066 -0.762,-3.05c1.525,-0.254 4.321,0.762 0.762,3.05Z" style="stroke:#000;stroke-width:0.35px;"/><path d="M204.117,268.58c-0.254,-0.254 -3.558,-0.508 -3.812,-1.017c1.525,-0.762 2.796,-1.271 3.812,1.017Z" style="fill:#fff;stroke:#fff;stroke-width:0.35px;"/></g></g></svg>