<?xml version="1.0" encoding="UTF-8" standalone="no"?>
<!DOCTYPE svg PUBLIC "-//W3C//DTD SVG 1.1//EN" "http://www.w3.org/Graphics/SVG/1.1/DTD/svg11.dtd">
<svg width="100%" height="100%" viewBox="0 0 3750 2500" version="1.1"
	xmlns="http://www.w3.org/2000/svg"
	xmlns:xlink="http://www.w3.org/1999/xlink">
	<g>
		<rect x="0" y="0" width="3750" height="1666" style="fill:#fff;"/>
	</g>
	<g>
		<rect x="0" y="833.333" width="3750" height="833.333" style="fill:#f5f2f2;"/>
		<rect x="0" y="1666.667" width="3750" height="833.333" style="fill:#00298c;"/>
		<rect x="0" y="0" width="3750" height="833.333" style="fill:#de1818;"/>
	</g>
	<g>
		<path d="M1500.143,491.667l108.389,-121.134l141.025,78.917l122.816,-97.628l128.534,97.559l142.028,-81.719l108.48,117.577l156.724,-63.136l90.298,152.683l-124.592,253.053c-341.173,-85.679 -673.366,-86.948 -996.217,-0.403l-121.366,-256.717l84.859,-148.271l159.022,69.217Z" style="fill:#fff;"/>
		<path d="M2177.975,752.438l71.433,-252.529l152.975,-62.087l80.592,135.329l-115.713,236.688c-66.517,-26.575 -102.15,-37.962 -189.287,-57.4Z" style="fill:#00a7bd;stroke:#0084fd;stroke-width:1.67px;"/>
		<path d="M1572.421,753.096l-66.771,-248.267l100.462,-123.308l142.95,82.533l24.125,260.975c-69.846,5.183 -120.333,11.817 -200.767,28.067Z" style="fill:none;"/>
		<path d="M1775.175,725.092l-24.125,-261.538l121.571,-96.637l127.013,96.404l-22.442,262.004c-69.988,-3.7 -119.967,-3.592 -202.017,-0.233Z" style="fill:#00a7bd;stroke:#0084fd;stroke-width:1.67px;"/>
		<path d="M1384.254,809.688l-113.325,-239.708l75.733,-132.325l156.992,68.333l66.333,247.3c-71.675,14.825 -109.633,26.933 -185.733,56.4Z" style="fill:#00a7bd;stroke:#0084fd;stroke-opacity:0.99;stroke-width:1.67px;"/>
		<path d="M1349.021,676.917c35.679,7.225 61.108,7.483 93.104,-1.292c38.225,-15.654 51.729,-36.725 64.175,-53.671c5.787,35.783 -0.263,68.208 -43.921,91.087c-39.188,18.062 -92.054,6.708 -113.358,-36.125Z" style="fill:#fff;stroke:#fff;stroke-width:1.67px;"/>
		<path d="M1978.992,724.967l22.604,-262.308l138.896,-79.917l107.371,116.375l-71.558,252.713c-69.358,-14.162 -108.933,-20.233 -197.312,-26.862Z" style="fill:#001070;stroke:#001071;stroke-opacity:0.99;stroke-width:1.67px;"/>
		<g>
			<path d="M1855.565,610.735c-1.402,0.68 -5.836,2.592 -6.025,2.538c0.154,0.313 0.288,11.353 0.288,11.353l-7.538,1.834l-5.689,8.965l2.932,2.538l0.641,-0.035l-2.881,8.154l1.263,2.65c-0.541,-0.742 -2.03,-2.652 -2.119,-2.652c-0.124,0 2.744,-7.058 2.57,-7.398l-3.074,-2.89l5.458,-10.124l7.802,-1.676l-0.243,-11.479l6.661,-2.348l-0.045,0.572Zm-16.52,39.019l0.83,1.742l3.275,-8.119l-2.866,-5.454l8.385,-0.467l1.723,8.119l3.102,2.708l0.518,14.882l2.932,1.186l0.861,-5.921l7.068,-0.506l1.379,12.008l-1.723,1.522l1.005,0.786l7.977,0.26c0,0 2.053,-2.567 2.223,-2.567c0.174,0 4.828,-0.51 4.828,-0.34c0,0.17 1.896,3.553 1.896,3.553l1.379,-4.569c0,0 4.484,-1.858 4.484,-1.688c0,0.166 3.619,5.747 3.619,5.747l6.207,-0.842l-3.793,-3.553l-1.553,-7.779l8.621,-4.569l3.445,5.751c0,0 3.275,0.17 3.105,0c-0.174,-0.17 -3.793,-6.597 -3.793,-6.597l0,-13.53l6.551,-8.795l9.135,-1.012l0,-3.723l-9.135,-8.289l-2.414,-11.499l-5.172,-2.538l-1.379,1.522l-5.689,0.506l5.689,8.289l0,5.411l0.332,0.174l-5.334,1.348l-15.685,-0.166l0,-7.273l3.793,-2.538c0,0 -8.795,0 -9.826,0.336c1.379,0.846 4.137,1.692 4.137,1.692l0.17,8.459l-18.1,-0.17c-0.348,0 1.896,3.89 1.896,3.89l7.238,7.779c0,0 2.762,0.51 2.762,0.34c0,-0.17 3.793,-9.471 3.793,-9.471l6.895,-0.17l6.033,7.949l2.07,-0.34l3.963,-6.933l6.199,-4.728l2.252,1.178l-0.521,14.882c0,0 -6.377,0.846 -6.377,1.016c0,0.17 -0.518,8.285 -0.518,8.285l-3.963,3.893c0,0 -2.244,7.779 -2.414,7.779c-0.174,0 -3.793,4.735 -3.793,4.735l-7.068,0.17c0,0 -4.137,-3.89 -4.137,-4.059c0,-0.116 -0.321,-2.742 -0.525,-4.403l5.867,-3.546c0,0 10.691,2.368 11.035,2.368c0.344,0 0.17,-2.032 0.344,-2.032c-0.158,-0.042 -10.517,-1.352 -10.517,-1.352l-0.17,-5.075c0,0 3.275,-1.692 3.445,-1.692c0.174,0 0.865,0.17 1.727,-2.028l-2.07,1.016l-6.207,0.506l-4.998,-0.846l1.723,1.692l4.484,1.016l0.17,5.241l-4.654,2.708l-0.328,0.807l-0.015,-0.131c0,0 -2.758,-0.846 -2.932,-0.846c-0.17,0 -1.553,-6.257 -1.553,-6.257l-4.824,-2.708l-0.344,-3.72l-4.658,-2.032c0,0 -0.518,-3.384 -0.688,-3.55c-0.174,-0.17 -2.24,-1.522 -2.414,-1.522c-0.174,0 -0.174,-9.305 -0.174,-9.305l4.141,-0.676l-3.105,-5.581l0,-2.708c0,0 -2.758,-4.191 -2.758,-4.056c0,0.023 0.452,-5.871 0.452,-5.871l-8.046,-10.405l0.124,-5.021l4.557,-0.587l7.679,2.87l5.214,6.917l3.029,-0.83c0,0 0.395,-7.666 0.395,-7.786c0,-0.12 8.922,-5.778 8.922,-5.778l9.578,5.194l0.608,7.748c0,0 6.341,0.143 6.341,0.023c0,-0.12 -1.464,-5.021 -1.464,-5.021l0,-2.63c0,-0.12 5.476,-1.071 5.476,-1.071l4.517,-3.78l6.098,0.664l0.61,3.468l-6.338,8.729c0,0 0.453,5.578 0.453,5.698c0,0.12 6.325,3.751 6.325,3.751l2.712,12.05l8.421,8.585l-0.604,6.392l4.361,9.15l-4.956,-0.436l0.742,10.525l-5.944,0l-1.027,9.343l-11.217,0.359l-0.243,5.863l-2.804,4.303l-20.842,2.395l-5.975,-1.916l-8.779,-0.239l-1.974,-3.496l-6.192,-5.234l-8.289,-1.317l-1.34,-7.296l-5.241,-0.715l-1.858,-5.577l0,-0.004Zm37.033,-63.035l-6.895,4.562l6.377,-1.012l0.518,-3.55Zm-29.652,69.173l3.967,-9.641l-7.586,7.779l3.619,1.862Zm40.687,-65.959l-7.068,-3.384l0.518,3.55l6.551,-0.166Zm-24.137,8.455l-3.619,-5.245l-4.998,-2.198l-4.314,-0.506l7.59,7.949l5.342,0Zm32.24,-3.044l12.066,-9.135l-3.963,-0.506l-4.484,4.059l-5.346,0.846l1.727,4.735Z" style="fill:#fadb03;fill-opacity:0.99;"/>
		</g>
		<g>
			<path d="M1908.716,499.737c-1.402,0.68 -5.836,2.592 -6.025,2.538c0.154,0.313 0.288,11.353 0.288,11.353l-7.538,1.834l-5.689,8.965l2.932,2.538l0.641,-0.035l-2.881,8.154l1.263,2.65c-0.541,-0.742 -2.03,-2.652 -2.119,-2.652c-0.124,0 2.744,-7.058 2.57,-7.398l-3.074,-2.89l5.458,-10.124l7.802,-1.676l-0.243,-11.479l6.661,-2.348l-0.045,0.572Zm-16.52,39.019l0.83,1.742l3.275,-8.119l-2.866,-5.454l8.385,-0.467l1.723,8.119l3.102,2.708l0.518,14.882l2.932,1.186l0.861,-5.921l7.068,-0.506l1.379,12.008l-1.723,1.522l1.005,0.786l7.977,0.26c0,0 2.053,-2.567 2.223,-2.567c0.174,0 4.828,-0.51 4.828,-0.34c0,0.17 1.896,3.553 1.896,3.553l1.379,-4.569c0,0 4.484,-1.858 4.484,-1.688c0,0.166 3.619,5.747 3.619,5.747l6.207,-0.842l-3.793,-3.553l-1.553,-7.779l8.621,-4.569l3.445,5.751c0,0 3.275,0.17 3.105,0c-0.174,-0.17 -3.793,-6.597 -3.793,-6.597l0,-13.53l6.551,-8.795l9.135,-1.012l0,-3.723l-9.135,-8.289l-2.414,-11.499l-5.172,-2.538l-1.379,1.522l-5.689,0.506l5.689,8.289l0,5.411l0.332,0.174l-5.334,1.348l-15.685,-0.166l0,-7.273l3.793,-2.538c0,0 -8.795,0 -9.826,0.336c1.379,0.846 4.137,1.692 4.137,1.692l0.17,8.459l-18.1,-0.17c-0.348,0 1.896,3.89 1.896,3.89l7.238,7.779c0,0 2.762,0.51 2.762,0.34c0,-0.17 3.793,-9.471 3.793,-9.471l6.895,-0.17l6.033,7.949l2.07,-0.34l3.963,-6.933l6.199,-4.728l2.252,1.178l-0.521,14.882c0,0 -6.377,0.846 -6.377,1.016c0,0.17 -0.518,8.285 -0.518,8.285l-3.963,3.893c0,0 -2.244,7.779 -2.414,7.779c-0.174,0 -3.793,4.735 -3.793,4.735l-7.068,0.17c0,0 -4.137,-3.89 -4.137,-4.059c0,-0.116 -0.321,-2.742 -0.525,-4.403l5.867,-3.546c0,0 10.691,2.368 11.035,2.368c0.344,0 0.17,-2.032 0.344,-2.032c-0.158,-0.042 -10.517,-1.352 -10.517,-1.352l-0.17,-5.075c0,0 3.275,-1.692 3.445,-1.692c0.174,0 0.865,0.17 1.727,-2.028l-2.07,1.016l-6.207,0.506l-4.998,-0.846l1.723,1.692l4.484,1.016l0.17,5.241l-4.654,2.708l-0.328,0.807l-0.015,-0.131c0,0 -2.758,-0.846 -2.932,-0.846c-0.17,0 -1.553,-6.257 -1.553,-6.257l-4.824,-2.708l-0.344,-3.72l-4.658,-2.032c0,0 -0.518,-3.384 -0.688,-3.55c-0.174,-0.17 -2.24,-1.522 -2.414,-1.522c-0.174,0 -0.174,-9.305 -0.174,-9.305l4.141,-0.676l-3.105,-5.581l0,-2.708c0,0 -2.758,-4.191 -2.758,-4.056c0,0.023 0.452,-5.871 0.452,-5.871l-8.046,-10.405l0.124,-5.021l4.557,-0.587l7.679,2.87l5.214,6.917l3.029,-0.83c0,0 0.395,-7.666 0.395,-7.786c0,-0.12 8.922,-5.778 8.922,-5.778l9.578,5.194l0.608,7.748c0,0 6.341,0.143 6.341,0.023c0,-0.12 -1.464,-5.021 -1.464,-5.021l0,-2.63c0,-0.12 5.476,-1.071 5.476,-1.071l4.517,-3.78l6.098,0.664l0.61,3.468l-6.338,8.729c0,0 0.453,5.578 0.453,5.698c0,0.12 6.325,3.751 6.325,3.751l2.712,12.05l8.421,8.585l-0.604,6.392l4.361,9.15l-4.956,-0.436l0.742,10.525l-5.944,0l-1.027,9.343l-11.217,0.359l-0.243,5.863l-2.804,4.303l-20.842,2.395l-5.975,-1.916l-8.779,-0.239l-1.974,-3.496l-6.192,-5.234l-8.289,-1.317l-1.34,-7.296l-5.241,-0.715l-1.858,-5.577l0,-0.004Zm37.033,-63.035l-6.895,4.562l6.377,-1.012l0.518,-3.55Zm-29.652,69.173l3.967,-9.641l-7.586,7.779l3.619,1.862Zm40.687,-65.959l-7.068,-3.384l0.518,3.55l6.551,-0.166Zm-24.137,8.455l-3.619,-5.245l-4.998,-2.198l-4.314,-0.506l7.59,7.949l5.342,0Zm32.24,-3.044l12.066,-9.135l-3.963,-0.506l-4.484,4.059l-5.346,0.846l1.727,4.735Z" style="fill:#fadb03;fill-opacity:0.99;"/>
		</g>
		<g>
			<path d="M1796.419,506.053c-1.402,0.68 -5.836,2.592 -6.025,2.538c0.154,0.313 0.288,11.353 0.288,11.353l-7.538,1.834l-5.689,8.965l2.932,2.538l0.641,-0.035l-2.881,8.154l1.263,2.65c-0.541,-0.742 -2.03,-2.652 -2.119,-2.652c-0.124,0 2.744,-7.058 2.57,-7.398l-3.074,-2.89l5.458,-10.124l7.802,-1.676l-0.243,-11.479l6.661,-2.348l-0.045,0.572Zm-16.52,39.019l0.83,1.742l3.275,-8.119l-2.866,-5.454l8.385,-0.467l1.723,8.119l3.102,2.708l0.518,14.882l2.932,1.186l0.861,-5.921l7.068,-0.506l1.379,12.008l-1.723,1.522l1.005,0.786l7.977,0.26c0,0 2.053,-2.567 2.223,-2.567c0.174,0 4.828,-0.51 4.828,-0.34c0,0.17 1.896,3.553 1.896,3.553l1.379,-4.569c0,0 4.484,-1.858 4.484,-1.688c0,0.166 3.619,5.747 3.619,5.747l6.207,-0.842l-3.793,-3.553l-1.553,-7.779l8.621,-4.569l3.445,5.751c0,0 3.275,0.17 3.105,0c-0.174,-0.17 -3.793,-6.597 -3.793,-6.597l0,-13.53l6.551,-8.795l9.135,-1.012l0,-3.723l-9.135,-8.289l-2.414,-11.499l-5.172,-2.538l-1.379,1.522l-5.689,0.506l5.689,8.289l0,5.411l0.332,0.174l-5.334,1.348l-15.685,-0.166l0,-7.273l3.793,-2.538c0,0 -8.795,0 -9.826,0.336c1.379,0.846 4.137,1.692 4.137,1.692l0.17,8.459l-18.1,-0.17c-0.348,0 1.896,3.89 1.896,3.89l7.238,7.779c0,0 2.762,0.51 2.762,0.34c0,-0.17 3.793,-9.471 3.793,-9.471l6.895,-0.17l6.033,7.949l2.07,-0.34l3.963,-6.933l6.199,-4.728l2.252,1.178l-0.521,14.882c0,0 -6.377,0.846 -6.377,1.016c0,0.17 -0.518,8.285 -0.518,8.285l-3.963,3.893c0,0 -2.244,7.779 -2.414,7.779c-0.174,0 -3.793,4.735 -3.793,4.735l-7.068,0.17c0,0 -4.137,-3.89 -4.137,-4.059c0,-0.116 -0.321,-2.742 -0.525,-4.403l5.867,-3.546c0,0 10.691,2.368 11.035,2.368c0.344,0 0.17,-2.032 0.344,-2.032c-0.158,-0.042 -10.517,-1.352 -10.517,-1.352l-0.17,-5.075c0,0 3.275,-1.692 3.445,-1.692c0.174,0 0.865,0.17 1.727,-2.028l-2.07,1.016l-6.207,0.506l-4.998,-0.846l1.723,1.692l4.484,1.016l0.17,5.241l-4.654,2.708l-0.328,0.807l-0.015,-0.131c0,0 -2.758,-0.846 -2.932,-0.846c-0.17,0 -1.553,-6.257 -1.553,-6.257l-4.824,-2.708l-0.344,-3.72l-4.658,-2.032c0,0 -0.518,-3.384 -0.688,-3.55c-0.174,-0.17 -2.24,-1.522 -2.414,-1.522c-0.174,0 -0.174,-9.305 -0.174,-9.305l4.141,-0.676l-3.105,-5.581l0,-2.708c0,0 -2.758,-4.191 -2.758,-4.056c0,0.023 0.452,-5.871 0.452,-5.871l-8.046,-10.405l0.124,-5.021l4.557,-0.587l7.679,2.87l5.214,6.917l3.029,-0.83c0,0 0.395,-7.666 0.395,-7.786c0,-0.12 8.922,-5.778 8.922,-5.778l9.578,5.194l0.608,7.748c0,0 6.341,0.143 6.341,0.023c0,-0.12 -1.464,-5.021 -1.464,-5.021l0,-2.63c0,-0.12 5.476,-1.071 5.476,-1.071l4.517,-3.78l6.098,0.664l0.61,3.468l-6.338,8.729c0,0 0.453,5.578 0.453,5.698c0,0.12 6.325,3.751 6.325,3.751l2.712,12.05l8.421,8.585l-0.604,6.392l4.361,9.15l-4.956,-0.436l0.742,10.525l-5.944,0l-1.027,9.343l-11.217,0.359l-0.243,5.863l-2.804,4.303l-20.842,2.395l-5.975,-1.916l-8.779,-0.239l-1.974,-3.496l-6.192,-5.234l-8.289,-1.317l-1.34,-7.296l-5.241,-0.715l-1.858,-5.577l0,-0.004Zm37.033,-63.035l-6.895,4.562l6.377,-1.012l0.518,-3.55Zm-29.652,69.173l3.967,-9.641l-7.586,7.779l3.619,1.862Zm40.687,-65.959l-7.068,-3.384l0.518,3.55l6.551,-0.166Zm-24.137,8.455l-3.619,-5.245l-4.998,-2.198l-4.314,-0.506l7.59,7.949l5.342,0Zm32.24,-3.044l12.066,-9.135l-3.963,-0.506l-4.484,4.059l-5.346,0.846l1.727,4.735Z" style="fill:#fadb03;fill-opacity:0.99;"/>
		</g>
		<path d="M2013.425,677.988l-6.962,8.142l0.533,6.833l14.463,-0.262c4.637,-1.096 5.8,-2.717 6.692,-4.6c1.429,-2.321 0.446,-3.587 0.804,-6.696l-15.529,-3.417Z" style="fill:#a0210c;stroke:#a0210c;stroke-width:1.67px;"/>
		<path d="M2048.233,698.475l-5.892,5.517l0,6.304l12.854,-0.262c4.642,-1.092 5.262,-1.925 6.158,-3.808c1.425,-2.321 0.983,-2.275 1.338,-5.383l-14.458,-2.367Z" style="fill:#a0210c;stroke:#a0210c;stroke-width:1.67px;"/>
		<path d="M2104.729,680.875l-6.692,6.833l0.267,5.25l13.654,0.525c4.642,-1.092 3.929,-0.875 5.358,-3.279c1.425,-2.321 0.979,-2.804 1.338,-5.913l-13.925,-3.417Z" style="fill:#a0210c;stroke:#a0210c;stroke-width:1.67px;"/>
		<path d="M2144.625,693.225l-7.763,6.567l0,6.567l14.458,1.312c4.642,-1.096 4.996,-2.45 6.158,-4.071c1.429,-2.321 0.713,-2.542 1.071,-5.65l-13.925,-4.725Z" style="fill:#a0210c;stroke:#a0210c;stroke-width:1.67px;"/>
		<path d="M2047.429,521.421l27.312,18.129c5.133,-4.262 15.812,-1.679 19.996,-0.5c7.512,1.963 12.804,6.408 19.367,7.592c11.996,3.017 26.371,5.096 37.258,3.917c10.892,-1.183 20.033,-6.875 28.071,-11.008l0,-2.629l-5.354,0c-8.692,3.129 -20.871,3.3 -30.2,2.075c-9.325,-1.225 -11.838,-5.404 -25.762,-9.429l-1.071,-2.625c16.904,0.8 20.333,0.363 27.408,-2.721c6.917,-1.838 10.033,-5.85 13.938,-8.625l-0.108,-3.104l-5.088,-0.262c-6.554,4.367 -10.733,5.154 -20.775,4.237c-9.137,-0.925 -17.371,-6.129 -23.5,-6.238c-6.504,0.05 -6.196,-3.058 -12.487,-3.363c-9.996,-0.875 -20.8,0.458 -30.258,2.733c-11.337,3.417 -13.033,6.304 -18.746,11.821Z" style="fill:#a0210c;stroke:#000;stroke-width:1.67px;"/>
		<path d="M2045.737,522.767c-6.183,1.788 -8.417,5.204 -11.442,8.154l-17.417,-8.821c-2.825,2.346 -3.913,5.692 -2.554,9.121c1.358,3.425 6.825,8.783 10.708,11.438c-0.971,4.729 -2.408,8.3 -4.104,12.45c-1.896,4.667 -5.958,10.558 -6.079,12.45c-0.229,2.167 -0.938,6.808 2.304,8.046c3.242,1.237 13.662,-0.854 17.142,-0.625c-0.567,1.858 -1.921,5.117 -1.458,6.512c0.462,1.396 1.396,1.863 4.225,1.942c-0.817,1.729 -2.575,3.921 -1.729,4.954c2.183,1.654 4.688,1.367 6.792,1.237c-3.321,3.85 -11.617,11.263 -14.308,14.575c-2.85,3.85 -3.092,8.008 2.425,7.604c-2.05,2.275 -4.025,4.471 -3.713,6.438c0.475,2.354 1.658,3.933 5.604,2.567c-2.333,5.279 -0.8,10.017 0.021,15.529c-1.992,4.171 -1.146,8.029 -1.642,12.821c-4.058,2.296 -4.563,5.292 -7.204,9.917c-2.379,5.004 -6.808,6.367 -9.267,17.104l15.933,3.975c0.583,-2.208 2.667,-3.642 3.254,-5.85c0.583,-2.208 0.537,-4.958 0.254,-7.396c3.162,-4.579 9.558,-14.037 11.612,-19.079c3.479,-1.854 6.008,-3.017 8.621,-3.017c2.613,0 4.271,1.546 7.042,3.017c-1.225,4.25 -4.662,8.883 -4.858,14.837l0,16.429c-0.696,4.079 -5.338,4.133 -7.292,16.421l14.312,3.712c2.429,-4.133 6.279,-4.704 7.287,-6.358l1.033,-17.067c1.821,-8.054 13.117,-14.717 13.279,-23.467c4.054,-0.054 5.583,0.358 7.192,-0.471c2.158,-0.754 2.9,-1.967 4.588,-3.496c0.65,2.638 2.721,2.867 4.479,2.867c1.754,0 5.242,-2.475 6.683,-3.483c1.012,1.429 1.55,2.779 3.667,3.279c2.121,0.496 8.104,-0.4 10.538,-0.983l-11.763,19.242c-0.438,1.854 0.15,3.013 -0.762,5.175c-0.854,1.946 -2.579,2.883 -3.354,4.671l13.333,3.187l2.125,-5.617c2.829,-1.192 5.104,-1.837 6.588,-3.65c1.488,-1.808 1.471,-5.246 2.325,-7.212c4.554,-3.304 11.717,-10.483 16.742,-16.425c3.412,0.575 8.25,3.4 10.083,7.617c0.258,4.525 0.592,12.846 -1.442,18.613l-8.642,13.512l-0.979,2.213l13.604,4.85l8.642,-6.625l0.338,-9.446c4.342,-7.667 10.55,-11.858 16.471,-16.692c0,-0.267 0.633,-10.146 0.396,-10.533c-1.462,-1.112 -2.45,-0.442 -2.967,-2.487c-0.517,-2.038 -0.167,-7.646 0.108,-9.842c0.854,-1.058 2.658,-2.275 2.567,-3.179c-2.354,-2.588 -1.633,-9.275 -0.913,-14.492c-0.179,-5.942 7.938,-12.967 9.179,-16.425l0.508,-6.238c-0.829,-1.533 -2.05,-2.446 -2.092,-3.746c-0.042,-1.3 1.575,-3.454 2.562,-4.833l1.721,-2.933l-0.267,-15.367c-0.483,-1.658 -1.912,-4.246 -3.263,-4.513c-1.35,-0.267 -3.333,1.254 -4.842,2.921l-7.817,5.775c-3.75,1.146 -7.025,1.596 -13.617,-0.046l-10.05,0.2c-5.279,1.475 -8.033,1.712 -12.996,-0.454l-5.954,0.096c-1.854,1.012 -4.421,2.637 -6.433,3.029c-2.012,0.388 -4.737,0.467 -6.75,-0.15c-15.367,1.033 -11.55,2.142 -15.942,3.1c-3.525,-0.671 -2.392,-2.425 -16.1,-2.55l-5.433,-1.592c-6.858,-4.542 -12.133,-11.796 -16.704,-20.133c14.283,-4.092 20.275,-8.337 24.608,-18.083l-20.196,0.754l-28.554,-18.975Z" style="fill:#fadb03;fill-opacity:0.99;"/>
		<path d="M2038.588,547.688l5.721,2.425c0.696,0.829 2.05,1.788 2.946,1.846c0.892,0.054 1.654,-0.858 2.421,-1.513l5.262,-2.758c-3.117,-0.45 -4.071,-2.383 -7.383,-2.383c-3.317,0 -5.65,1.737 -8.967,2.383Z" style="stroke:#000;stroke-width:1.67px;"/>
		<path d="M2177.858,752.367l72.008,-253.821l152.85,-61.575l81.062,137.067l-116.025,235.625c-65.629,-24.804 -103.162,-38.054 -189.896,-57.296Z" style="fill:none;"/>
		<path d="M2225.6,584.5c39.212,8.283 75.508,17.708 111.804,29.421c36.292,11.708 70.842,25.704 105.975,40.842l-58.812,118.825c-32.829,-12.492 -65.242,-22.562 -97.654,-33.033c-32.412,-10.475 -64.004,-19.738 -96.829,-29.804l35.517,-126.25Z" style="fill:#fdfcfc;stroke:#fdfcfc;stroke-width:1.67px;"/>
		<path d="M2217.792,612.567c0,0 54.758,12.221 107.825,29.287c53.062,17.067 104.838,38.979 104.633,38.979c-0.412,0 -33.354,67.863 -33.354,67.863c-31.975,-12.721 -65.604,-24.642 -98.817,-35.346c-33.213,-10.704 -66.425,-21.004 -100.463,-28.879l20.175,-71.904Z" style="fill:#e6151e;stroke:#e6151e;stroke-width:1.67px;"/>
		<path d="M2222.342,645.758c5.387,-3.008 9.033,-3.821 11.933,-8.783l19.392,0.004l0.25,7.071c4.767,2.275 7.542,4.8 12.308,7.075c4.762,2.275 11.521,4.308 16.283,6.583l41.771,3.662c5.592,0.892 13.675,3.25 18.521,6.096c4.85,2.846 7.958,6.425 10.571,10.975c8.575,3.008 17.154,4.8 25.979,6.1c8.829,1.3 19.892,1.871 28.467,2.196c4.229,1.462 4.229,3.658 2.238,5.854c0,0 -4.725,6.4 -17.621,6.462c-12.9,0.062 -27.504,-7.196 -33.846,-6.221c0.25,3.904 6.963,11.954 14.671,15.125l-0.246,18.538l-3.483,3.171l-3.729,-2.438c2.983,-4.392 1.988,-9.517 0.746,-13.904c-2.858,-4.146 -3.233,-5.854 -8.575,-6.096c-6.342,-1.225 -10.942,-2.933 -19.021,-8.542l-2.987,0.488c-1.738,3.092 -3.479,5.204 -7.458,7.075l-8.204,-0.487c0,0 -18.896,-4.146 -18.896,-4.392c0,-0.242 -0.25,-2.925 0.25,-3.171c0.496,-0.246 6.463,-0.242 6.958,-0.242c3.979,1.217 12.433,1.217 12.433,1.217l-0.25,-7.075l12.683,-0.729c-2.571,-8.779 -3.4,-14.392 -15.167,-16.342l-36.8,0.975l0.5,5.121c-9.2,-1.217 -25.858,-1.438 -34.367,1.383c-4.971,0.487 -12.129,3.008 -15.358,3.008l-3.733,-0.975c-2.483,-0.733 -2.483,-1.462 -1.488,-3.658c15.908,-1.221 18.396,-2.442 23.121,-4.633c0.25,-1.467 -1.742,-4.638 -2.487,-4.883c-9.942,-0.483 -17.9,0.246 -20.633,-0.242c-4.225,-1.221 -9.946,-3.412 -9.946,-3.658c0,-0.246 -0.746,-3.904 -0.496,-3.904c0.246,0 6.463,1.708 6.708,1.708c6.717,1.221 18.4,0.733 21.137,-0.729l0.25,-5.371c-0.25,-2.438 -1.992,-4.633 -2.492,-4.875c-0.496,-0.246 -10.938,-1.463 -14.667,-1.463c-6.05,-1.058 -5.137,-4.067 -5.221,-7.075Z" style="stroke:#010001;stroke-opacity:0.99;stroke-width:1.67px;"/>
		<path d="M1767.054,657.829l6.208,67.575c-72.604,5.379 -119.642,12.367 -201.379,26.913l-66.5,-247.833l101.471,-122.929l141.862,80.988c-41.858,-0.079 -82.667,0.467 -123.446,6.296c-42.75,5.875 -83.287,19.342 -119.404,36.604l15.421,58.033c35.375,-13.558 59.342,-20.475 117.525,-28.542c58.45,-7.562 83.175,-6.954 116.292,-7.225l5.825,63.4c-35.933,-2.146 -76.829,-2.129 -113.825,2.733c-37.129,4.883 -73.179,13.529 -110.312,26.004c-0.55,0 18.275,68.363 18.275,68.363c34.733,-8.767 70.021,-15.367 105.304,-20.338c35.179,-4.954 72.587,-7.787 106.683,-10.042Z" style="fill:#011171;fill-opacity:0.99;stroke:#011171;stroke-width:1.67px;"/>
		<path d="M2370.508,575.042l-22.55,21.092l-6.554,-30.213l-32.483,-9.879l25.242,-22.45l-6.133,-29.908l30.758,9.662l-0.013,-0.087l23.3,-19.038l-0.225,0.613c0.746,2.525 5.029,28.017 4.883,28.217c-0.1,0.129 12.575,4.704 21.692,7.971c4.967,1.717 8.825,3.046 8.9,3.1c0.008,0.004 -0.033,0.017 -0.121,0.037c0.213,0.075 0.329,0.117 0.329,0.117l-23.508,20.171l2.817,29.096l-21.317,-6.946l-5.021,-1.554l0.004,0Zm-997.229,-21.233l-0.071,-0.062l5.325,-29.279l0.233,0.613c2.25,1.467 22.263,18.188 22.275,18.429c0.013,0.167 12.8,-4.404 21.933,-7.688c4.883,-1.817 8.663,-3.229 8.754,-3.238c0.008,0 -0.012,0.033 -0.062,0.1l0.325,-0.117l-4.733,30.275l21.275,20.413l-20.883,8.204l-4.858,1.992l-3.4,30.367l-24.871,-18.9l-31.35,13.037l4.563,-33.112l-24.35,-18.929l29.892,-12.104l0.004,0Z" style="fill:#fadb03;fill-opacity:0.99;"/>
		<path d="M1371,830.95l1008.063,0l0,646.392c-25.621,251.737 -267.571,439.908 -488.658,438.471c-238.654,10.413 -502.567,-184.938 -521.6,-440.625l2.196,-644.238Z" style="fill:#e5141d;"/>
		<path d="M1586.517,1269.838l-192.108,0l0,-206.487l192.108,0l0,206.487Zm0,-206.487l0,-206.483l192.108,0l0,206.483l-192.108,0Zm192.108,0l192.108,0l0,206.487l-192.108,0l0,-206.487Zm192.108,206.487l192.108,0l0,206.488l-192.108,0l0,-206.488Zm0,206.488l0,206.488l-192.108,0l0,-206.488l192.108,0Zm-192.108,0l-192.108,0l0,-206.488l192.108,0l0,206.488Zm384.221,-206.488l0,-206.487l192.108,0l0,206.487l-192.108,0Zm1.05,207.571c0.75,-0.05 187.754,0.042 188.604,0.042c-4.925,49.479 -27.796,126.221 -80.15,204.646l-108.404,-0.504l-0.05,-204.183Zm-192.1,206.371l189.996,-0.079l0.321,109.754c-38.833,28.046 -107.004,69.625 -190.283,86.383l-0.033,-196.058Zm-383.946,-0.017l189.721,0.071l0.642,194.088c-49.775,-10.396 -124.517,-38.446 -189.962,-84.642l-0.4,-109.517Zm-192.392,-206.283l190.008,-0.088l-0.021,204.154l-112.038,-2.333c-35.9,-50.154 -71.85,-121.783 -77.95,-201.733Zm767.388,-621.554l0,206.487l-192.108,0l0,-206.487l192.108,0Z" style="fill:#fff;"/>
	</g>	
</svg>