<svg xmlns="http://www.w3.org/2000/svg" xmlns:xlink="http://www.w3.org/1999/xlink" width="100%" height="100%" viewBox="0 0 900 600" fill-rule="evenodd" stroke-linecap="round" stroke-linejoin="round" xmlns:v="https://vecta.io/nano"><style><![CDATA[.B{stroke:#000}.C{fill:#ff0}.D{stroke-linejoin:miter}.E{stroke-width:.75}.F{stroke-linecap:butt}.G{fill-rule:nonzero}.H{fill:#fff}]]></style><g class="G"><path d="M360-37.5h540v675H360z" fill="red"/><path d="M0-37.5h360v675H0z" fill="#060"/></g><g stroke-width=".84" class="B C"><path d="M477.422 393.094C432 391.688 224.297 262.031 222.891 241.219l11.39-18.985c20.672 29.954 233.016 156.094 253.969 151.594l-10.828 19.266"/><path d="M231.891 219.563c-4.078 10.968 54.281 46.968 124.312 89.718 70.172 42.61 130.641 68.907 135 65.25l2.11-3.937c-.844 1.406-2.813 1.828-6.047.844-18.985-5.485-68.344-28.125-129.516-65.25-61.313-37.125-114.469-71.297-122.766-85.782a8.86 8.86 0 0 1-.843-4.359h-.282l-1.687 3.094-.281.422zm246.515 174.093c-.703 1.407-2.25 1.407-4.922 1.125-16.875-1.828-68.343-26.859-129.234-63.281-70.875-42.469-129.375-81-122.906-91.125l1.687-3.094.282.141c-5.625 17.156 115.453 86.344 122.625 90.844 70.031 43.312 129.093 68.765 134.296 62.156l-1.828 3.234z"/><path d="M360.281 253.875c45.281-.422 101.25-6.188 133.594-19.125l-7.031-11.25c-18.985 10.547-75.235 17.578-126.985 18.563-61.031-.563-104.203-6.329-125.859-20.813l-6.469 12.094c39.656 16.875 80.438 20.39 132.75 20.531"/><path d="M495.703 235.031c-1.125 1.828-22.219 9-53.156 14.344a536.1 536.1 0 0 1-82.406 6.047 585.07 585.07 0 0 1-79.032-5.063c-32.484-5.062-49.218-12.093-55.547-14.625l1.547-3.093c17.86 7.031 34.735 11.25 54.422 14.343 26.008 3.512 52.225 5.25 78.469 5.204a551.11 551.11 0 0 0 81.984-6.047c31.641-5.204 48.938-11.813 51.469-14.766l2.25 3.797v-.141zm-6.187-11.39c-3.375 2.812-20.532 8.859-50.625 13.64a545.81 545.81 0 0 1-78.469 5.625c-30.938 0-56.391-2.25-75.656-5.062-30.657-3.938-46.969-11.25-52.875-13.219l1.828-3.094c4.64 2.391 20.25 8.719 51.328 13.078a541.44 541.44 0 0 0 75.375 4.782 540.03 540.03 0 0 0 77.906-5.625c30.234-4.219 46.547-11.813 49.078-13.782l2.11 3.657zm-278.157 84.796c27.844 15.047 89.86 22.5 148.5 23.063 53.438.141 122.907-8.156 148.922-21.938l-.703-15.046c-8.156 12.656-82.687 24.89-148.781 24.468-66.094-.562-127.547-10.687-148.078-23.906v13.359"/><path d="M510.188 306.328v3.516c-3.938 4.781-28.407 11.812-59.063 16.875-30.456 4.378-61.2 6.446-91.969 6.187a562.41 562.41 0 0 1-87.187-6.047c-21.536-2.488-42.58-8.176-62.438-16.875v-4.078c13.641 9 50.485 15.75 62.86 17.719 22.218 3.375 50.765 5.906 86.765 5.906 37.828 0 68.063-2.672 91.406-6.187 22.079-3.235 53.438-11.532 59.625-17.016zm0-12.656v3.515c-3.937 4.641-28.406 11.672-59.062 16.735a610.34 610.34 0 0 1-91.969 6.328c-29.173.172-58.317-1.85-87.187-6.047-21.536-2.489-42.58-8.176-62.438-16.875v-4.219c13.641 9.141 50.625 15.75 62.86 17.719 28.727 4.208 57.732 6.23 86.765 6.047 37.828 0 68.203-2.813 91.406-6.328 22.079-3.094 53.438-11.391 59.625-16.875zm-150.468 96.75c-64.125-.281-119.11-17.438-130.782-20.25l8.438 13.219c39.443 13.969 81.067 20.78 122.906 20.109 48.797-1.406 91.406-5.203 121.36-19.828l8.718-13.781c-20.39 9.703-90 20.531-130.781 20.531"/><path d="M485.016 380.578l-3.938 5.625c-14.062 5.063-36.562 10.406-45.844 11.813-24.905 4.64-50.182 6.994-75.515 7.031-56.813-.844-103.36-11.953-125.157-21.516l-1.828-2.953.282-.562 2.953 1.265A402.89 402.89 0 0 0 360 401.672c26.437 0 52.734-2.953 73.969-6.75 32.625-6.61 45.843-11.531 49.922-13.781l.984-.563h.141zm7.453-12.375l-2.813 4.922c-7.594 2.812-28.125 8.719-58.078 12.937-19.687 2.672-31.922 5.344-71.156 6.047-44.851-.45-89.426-7.075-132.469-19.687l-1.547-3.516c43.732 12.087 88.796 18.7 134.156 19.688 35.86-.703 51.188-3.375 70.735-6.047 34.875-5.344 52.453-11.25 57.656-12.797a4.39 4.39 0 0 0 0-.281l3.656-1.407-.14.141z"/><path d="M493.313 296.625c.14 42.188-21.516 80.156-38.813 96.75-25.538 24.907-59.675 39.106-95.344 39.656-42.609.703-82.687-27-93.515-39.234a142.07 142.07 0 0 1-38.672-94.781c2.531-46.125 20.672-78.188 46.828-100.266 25.403-20.912 57.379-32.218 90.281-31.922a138.16 138.16 0 0 1 99.844 50.063c17.578 21.375 25.312 44.578 29.39 79.734zM359.438 152.344c81.35-.003 148.449 66.59 149.063 147.937 0 81.542-67.099 148.641-148.641 148.641s-148.64-67.099-148.64-148.641c-.141-81.562 66.515-147.937 148.219-147.937"/><path d="M359.859 151.641c81.844 0 148.5 66.656 148.5 148.5s-66.656 148.5-148.359 148.5-148.5-66.657-148.5-148.5 66.656-148.5 148.5-148.5h-.141zM214.594 300c0 79.875 65.672 145.266 145.265 145.266S505.125 379.875 505.125 300s-65.672-145.266-145.266-145.266S214.594 220.125 214.594 300zM360 164.016c74.512.23 135.754 61.472 135.984 135.984-.229 74.536-61.448 135.818-135.984 136.125-74.531 0-135.984-61.313-135.984-136.125.306-74.483 61.501-135.678 135.984-135.984zM227.25 300c0 73.125 59.906 132.75 132.75 132.75S492.75 372.984 492.75 300c0-73.125-59.906-132.75-132.75-132.75-72.708.306-132.444 60.042-132.75 132.75z"/><path d="M366.047 150.938l-12.797-.001v298.547h12.656l.141-298.547z"/><path d="M364.641 149.25h3.234v301.922h-3.094V149.25h-.14zm-12.657 0h3.375v301.922h-3.234V149.25h-.141z"/><path d="M508.5 305.906v-10.969l-9-8.437-51.047-13.5-73.406-7.453-88.594 4.5-63 14.906-12.656 9.422v11.109L243 291l76.5-11.953h73.547l54 5.906 37.406 9 24.047 11.953z"/><path d="M360 277.219c35.016 0 68.906 3.234 96.047 8.437 27.844 5.625 47.39 12.656 54.14 20.391v3.937c-8.156-9.843-34.453-16.875-54.843-21.093-26.719-5.063-60.469-8.438-95.485-8.438-36.703 0-71.015 3.656-97.453 8.719-21.093 4.219-49.359 12.656-52.875 20.812v-4.078c1.828-5.625 22.922-14.062 52.453-20.109 26.579-5.203 60.891-8.578 97.875-8.578H360zm0-12.797c32.203-.065 64.348 2.759 96.047 8.437 27.844 5.625 47.391 12.657 54.141 20.532v3.796c-8.157-9.703-34.454-16.875-54.844-20.953-26.719-5.203-60.469-8.437-95.485-8.437-32.637-.103-65.213 2.815-97.312 8.719-20.391 3.796-49.781 12.515-53.016 20.671v-3.937c1.969-5.625 23.344-14.484 52.453-20.109 26.719-5.204 60.891-8.719 98.016-8.719zm-.844-64.969c55.266-.281 103.5 7.734 125.578 18.984l8.016 14.063c-19.125-10.406-71.156-21.094-133.453-19.688-50.766.422-105.047 5.625-132.188 20.25l9.563-16.031c22.359-11.672 74.953-17.578 122.484-17.578"/><path d="M360 210.984c28.855-.487 57.698 1.537 86.203 6.047 22.5 4.219 44.016 10.406 47.11 13.781l2.39 4.219c-7.453-4.781-26.156-10.265-50.062-14.765s-54.422-6.047-85.782-5.907c-35.578-.14-63.281 1.688-86.906 5.907-16.286 2.282-32.098 7.173-46.828 14.484l2.391-4.359c8.437-4.219 21.515-9.422 43.734-13.5 24.609-4.5 52.594-5.766 87.75-5.907zm0-12.656c30.094-.281 59.906 1.406 83.109 5.625a134.99 134.99 0 0 1 43.032 14.063l3.515 5.625c-5.906-6.61-28.125-12.938-47.953-16.313-23.062-4.078-51.609-5.625-81.703-5.906-28.014-.25-56 1.82-83.672 6.187-14.469 2.017-28.522 6.337-41.625 12.797l3.094-4.64c8.156-4.219 21.375-8.157 37.969-11.391A501.94 501.94 0 0 1 360 198.188v.14zm73.688 163.547c-24.375-4.22-49.096-6.104-73.829-5.625-92.109 1.125-121.781 18.984-125.437 24.328l-7.031-11.25c23.625-16.875 73.687-26.437 133.031-25.594 30.797.563 57.375 2.672 79.594 7.032l-6.328 11.25"/><path d="M359.438 354.703c25.593.422 50.625 1.406 74.953 5.906l-1.688 3.094c-22.5-4.219-46.687-5.625-73.125-5.625-34.172-.281-68.484 2.953-98.437 11.531-9.422 2.672-25.032 8.719-26.719 13.782l-1.688-2.813c.563-3.094 9.844-9.281 27.563-14.062 34.312-9.844 66.375-11.672 99.141-11.813zm1.124-12.937c27.014-.028 53.978 2.325 80.579 7.031l-1.829 3.234c-25.975-4.765-52.341-7.072-78.75-6.89-34.031 0-70.171 2.531-103.078 12.093-10.547 3.094-28.968 9.844-29.531 15.047l-1.687-3.094c.281-4.781 16.171-11.109 30.515-15.187 33.047-9.703 69.328-12.094 103.781-12.234z"/><path d="M491.344 371.016l-10.969 17.296-31.922-28.265-82.406-55.547-93.094-51.047L224.719 237l10.265-19.125 3.516-1.828 29.953 7.453 99 51.047 57.094 36L472.5 345l19.547 22.5-.703 3.516z"/><path d="M223.031 237.422c8.438-5.625 70.594 21.937 135.844 61.312 64.828 39.375 126.984 83.813 121.359 92.11l-1.828 2.953-.844.703c.141-.141 1.125-1.406 0-4.359-2.812-9.141-46.968-44.297-119.953-88.453-71.297-42.329-130.64-67.922-136.406-60.61l1.828-3.656zm270.563 133.453c5.343-10.688-52.313-54.141-123.891-96.469-73.125-41.484-126-65.953-135.703-58.64l-1.969 4.078c0 .14 0-.282.563-.703 1.687-1.407 4.64-1.407 5.906-1.407 16.594.282 63.984 22.078 130.5 60.188 29.25 16.875 123.188 77.344 122.766 94.219 0 1.406.14 1.687-.422 2.531l2.39-3.656-.14-.141z"/></g><g class="G"><g class="D B"><path d="M270.901 316.548c.045 23.51 9.504 46.049 26.25 62.55a88.53 88.53 0 0 0 62.7 26.4 89.13 89.13 0 0 0 63-26.1 88.53 88.53 0 0 0 26.1-62.7V197.897l-178.05-.3v118.951z" stroke-width="1.05" class="H"/><path d="M274.201 316.698a84.63 84.63 0 0 0 25.2 60 85.53 85.53 0 0 0 60.3 25.2c22.596.013 44.297-8.948 60.3-24.9a84.63 84.63 0 0 0 25.05-60v-115.5h-170.55v115.2m136.5-80.55v73.35l-.15 7.65a49.82 49.82 0 0 1-15 36 51.02 51.02 0 0 1-36 15c-14.1 0-26.55-6-35.85-15.3a51.02 51.02 0 0 1-15-36v-81l102 .3z" fill="red" class="E F"/></g><g class="C"><use xlink:href="#B"/><g class="B D E"><use xlink:href="#C"/><use xlink:href="#D" class="F"/><path d="M280.501 212.448h6v5.1h-6zm15.9 0h6v5.1h-6z"/><use xlink:href="#E"/><use xlink:href="#E" x="15.9"/></g></g><path d="M290.851 210.948c0-.9 1.35-.9 1.35 0v2.4h-1.35v-2.4"/><use xlink:href="#F"/><use xlink:href="#F" x="15.9"/><g class="C"><use xlink:href="#B" y="69.45"/><g class="B D E"><use xlink:href="#C" y="69.45"/><use xlink:href="#D" y="69.45" class="F"/><path d="M280.501 281.898h6v5.1h-6zm15.9 0h6v5.1h-6z"/><use xlink:href="#E" y="69.45"/><use xlink:href="#E" x="15.9" y="69.45"/></g></g><path d="M290.851 280.398c0-.9 1.35-.9 1.35 0v2.4h-1.35v-2.4"/><use xlink:href="#F" y="69.45"/><use xlink:href="#F" x="15.9" y="69.45"/><g class="C"><path d="M312.371 373.48c-5.748-5.92-3.01-11.445-3.01-11.445.106-.106 6.035-3.097 11.889 2.717l-8.772 8.834"/><g class="B D E"><path d="M301.646 370.017l5.966 7.404 4.439-4.47c-5.534-5.496-2.158-10.599-2.158-10.599.106-.107 5.398-3.095 10.72 1.978l4.439-4.471-7.658-5.913-15.854 15.966.106.105zm5.755 7.829l17.969-18.094c.317-.319.953-.321 1.379.101.532.529.534 1.165.217 1.485l-17.968 18.094c-.317.319-.954.321-1.486-.207-.426-.423-.428-1.059-.005-1.485l-.106.106z"/><path d="M313.848 371.142c-3.512-3.488-2.039-6.888-2.039-6.888s3.495-1.391 6.901 1.991l-4.862 4.897m-15.71-3.34l17.229-17.349c.317-.319 1.06-.216 1.485.207a.97.97 0 0 1 .005 1.273l-17.228 17.349c-.318.319-.954.321-1.38-.101-.319-.317-.321-.954-.004-1.273l-.107-.106zm1.914 1.266l16.383-16.497c.317-.32.953-.322 1.379.101s.428 1.059.111 1.379l-16.383 16.497c-.423.426-.953.322-1.379-.101s-.534-.953-.111-1.379zm-5.892-16.632l1.269-1.277.851.846.951-.958-.851-.846 1.374-1.383.958.951.951-.958-1.064-1.057 1.268-1.277 2.129 2.114c.426.422.427.847.11 1.166l-4.651 4.683c-.317.319-.847.427-1.166.11l-2.129-2.114zm7.736-2.042l7.129 6.445-4.545 4.577-6.601-7.189 3.911-3.939" class="F"/><path d="M299.593 359.1l3.619 3.593-4.228 4.258-3.619-3.594 4.228-4.257zm11.204-11.283l3.619 3.594-4.228 4.258-3.619-3.594 4.228-4.258z"/><path d="M291.858 361.354l1.268-1.277 1.065 1.057.951-.958-1.064-1.057 1.268-1.277 1.064 1.057.952-.958-1.065-1.057 1.269-1.277 2.128 2.113c.426.423.427.847.11 1.167l-4.545 4.577c-.347.35-.922.352-1.272.004l-2.129-2.114zm11.204-11.282l1.268-1.277 1.064 1.057.952-.958-1.065-1.057 1.269-1.278 1.064 1.057.951-.958-1.064-1.056 1.268-1.278 2.129 2.114c.426.423.427.847.11 1.167l-4.545 4.576c-.348.351-.922.353-1.273.005l-2.128-2.114z"/></g></g><path d="M301.594 354.956c-.639-.634.312-1.592.951-.958l1.703 1.691-.951.958-1.703-1.691m-3.26 7.966a.6.6 0 0 1 .845-.851l1.277 1.268-.845.852-1.277-1.269m11.203-11.282a.6.6 0 0 1 .846-.851l1.277 1.268-.846.852-1.277-1.269"/><g class="C"><use xlink:href="#B" x="68.55"/><g class="B D E"><use xlink:href="#C" x="68.55"/><use xlink:href="#D" x="68.55" class="F"/><path d="M349.051 212.448h6v5.1h-6zm15.9 0h6v5.1h-6z"/><use xlink:href="#E" x="68.55"/><use xlink:href="#E" x="84.45"/></g></g><path d="M359.401 210.948c0-.9 1.35-.9 1.35 0v2.4h-1.35v-2.4"/><use xlink:href="#F" x="68.55"/><use xlink:href="#F" x="84.45"/><g class="C"><path d="M434.401 231.648c-.15-8.25-6-10.2-6-10.2-.15 0-6.45 2.1-6.45 10.35h12.45"/><g class="B D E"><use xlink:href="#G"/><use xlink:href="#H" class="F"/><path d="M433.201 212.448h6v5.1h-6zm-15.9 0h6v5.1h-6z"/><use xlink:href="#I"/><use xlink:href="#I" x="-15.9"/></g></g><path d="M428.851 210.948c0-.9-1.35-.9-1.35 0v2.4h1.35v-2.4m7.95 3.3a.6.6 0 0 0-1.2 0v1.8h1.2v-1.8m-15.9 0a.6.6 0 0 0-1.2 0v1.8h1.2v-1.8"/><g class="C"><path d="M434.401 301.098c-.15-8.25-6-10.2-6-10.2-.15 0-6.45 2.1-6.45 10.35h12.45"/><g class="B D E"><use xlink:href="#G" y="69.45"/><use xlink:href="#H" y="69.45" class="F"/><path d="M433.201 281.898h6v5.1h-6zm-15.9 0h6v5.1h-6z"/><use xlink:href="#I" y="69.45"/><use xlink:href="#I" x="-15.9" y="69.45"/></g></g><path d="M428.851 280.398c0-.9-1.35-.9-1.35 0v2.4h1.35v-2.4m7.95 3.3a.6.6 0 0 0-1.2 0v1.8h1.2v-1.8m-15.9 0a.6.6 0 0 0-1.2 0v1.8h1.2v-1.8"/><g class="C"><path d="M407.331 373.48c5.748-5.92 3.01-11.445 3.01-11.445-.106-.106-6.035-3.097-11.889 2.717l8.773 8.834"/><g class="B D E"><path d="M418.056 370.017l-5.966 7.404-4.439-4.47c5.535-5.496 2.158-10.599 2.158-10.599-.105-.107-5.398-3.095-10.719 1.978l-4.439-4.471 7.657-5.913 15.854 15.966-.106.105zm-5.755 7.829l-17.968-18.094c-.317-.319-.954-.321-1.38.101-.532.529-.534 1.165-.217 1.485l17.968 18.094c.317.319.954.321 1.486-.207.426-.423.428-1.059.005-1.485l.106.106z"/><path d="M405.854 371.142c3.513-3.488 2.04-6.888 2.04-6.888s-3.496-1.391-6.902 1.991l4.862 4.897m15.71-3.34l-17.229-17.349c-.317-.319-1.059-.216-1.485.207a.97.97 0 0 0-.005 1.273l17.229 17.349c.317.319.953.321 1.379-.101.319-.317.321-.954.004-1.273l.107-.106zm-1.914 1.266l-16.383-16.497c-.317-.32-.953-.322-1.379.101s-.428 1.059-.111 1.379l16.383 16.497c.423.426.954.322 1.379-.101s.534-.953.111-1.379zm5.892-16.632l-1.268-1.277-.852.846-.951-.958.851-.846-1.374-1.383-.958.951-.951-.958 1.064-1.057-1.268-1.277-2.129 2.114c-.425.422-.427.847-.11 1.166l4.651 4.683c.317.319.847.427 1.166.11l2.129-2.114zm-7.736-2.042l-7.129 6.445 4.545 4.577 6.601-7.189-3.91-3.939" class="F"/><path d="M420.109 359.1l-3.619 3.593 4.228 4.258 3.619-3.594-4.228-4.257zm-11.203-11.283l-3.619 3.594 4.228 4.258 3.618-3.594-4.227-4.258z"/><path d="M427.844 361.354l-1.268-1.277-1.064 1.057-.952-.958 1.065-1.057-1.269-1.277-1.064 1.057-.951-.958 1.064-1.057-1.268-1.277-2.129 2.113c-.426.423-.427.847-.11 1.167l4.545 4.577c.348.35.922.352 1.273.004l2.128-2.114zm-11.203-11.282l-1.269-1.277-1.064 1.057-.951-.958 1.064-1.057-1.268-1.278-1.065 1.057-.951-.958 1.064-1.056-1.268-1.278-2.129 2.114c-.425.423-.427.847-.11 1.167l4.545 4.576c.348.351.923.353 1.273.005l2.129-2.114z"/></g></g><path d="M418.108 354.956c.639-.634-.312-1.592-.951-.958l-1.703 1.691.951.958 1.703-1.691m3.261 7.966a.6.6 0 0 0-.846-.851l-1.277 1.268.845.852 1.278-1.269m-11.204-11.282a.6.6 0 0 0-.846-.851l-1.277 1.268.846.852 1.277-1.269"/><use xlink:href="#J" fill="#039"/></g><g class="H"><circle cx="354.151" cy="293.598" r="2.25"/><circle cx="366.601" cy="293.598" r="2.25"/><circle cx="360.301" cy="299.598" r="2.25"/><circle cx="354.151" cy="305.898" r="2.25"/><circle cx="366.601" cy="305.898" r="2.25"/></g><use xlink:href="#J" y="-39" fill="#039" class="G"/><g class="H"><circle cx="354.151" cy="254.598" r="2.25"/><circle cx="366.601" cy="254.598" r="2.25"/><circle cx="360.301" cy="260.598" r="2.25"/><circle cx="354.151" cy="266.898" r="2.25"/><circle cx="366.601" cy="266.898" r="2.25"/></g><path d="M317.701 303.648c-.027 3.165 1.154 6.224 3.3 8.55 2.025 2.264 4.913 3.572 7.95 3.6 3.15 0 6-1.5 7.95-3.6 2.146-2.326 3.327-5.385 3.3-8.55v-16.2h-22.5v16.2" fill="#039" class="G"/><g class="H"><circle cx="322.951" cy="293.598" r="2.25"/><circle cx="335.401" cy="293.598" r="2.25"/><circle cx="329.101" cy="299.598" r="2.25"/><circle cx="322.951" cy="305.898" r="2.25"/><circle cx="335.401" cy="305.898" r="2.25"/></g><use xlink:href="#J" x="31.2" fill="#039" class="G"/><g class="H"><circle cx="385.351" cy="293.598" r="2.25"/><circle cx="397.801" cy="293.598" r="2.25"/><circle cx="391.501" cy="299.598" r="2.25"/><circle cx="385.351" cy="305.898" r="2.25"/><circle cx="397.801" cy="305.898" r="2.25"/></g><use xlink:href="#J" y="38.7" fill="#039" class="G"/><g class="H"><circle cx="354.151" cy="332.298" r="2.25"/><circle cx="366.601" cy="332.298" r="2.25"/><circle cx="360.301" cy="338.298" r="2.25"/><circle cx="354.151" cy="344.598" r="2.25"/><circle cx="366.601" cy="344.598" r="2.25"/></g><defs ><path id="B" d="M285.301 231.648c.15-8.25 6-10.2 6-10.2.15 0 6.45 2.1 6.45 10.35h-12.45"/><path id="C" d="M280.201 221.598l-1.05 9.45h6.3c0-7.8 6-9 6-9 .15 0 6 1.65 6.15 9h6.3l-1.2-9.6h-22.5v.15zm-1.5 9.6h25.5c.45 0 .9.45.9 1.05 0 .75-.45 1.2-.9 1.2h-25.5c-.45 0-.9-.45-.9-1.2 0-.6.45-1.05 1.05-1.05h-.15z"/><path id="D" d="M288.001 231.048c0-4.95 3.45-6.3 3.45-6.3s3.45 1.5 3.45 6.3h-6.9m-8.7-13.5h24.45c.45 0 .9.6.9 1.2 0 .45-.45.9-.9.9h-24.45c-.45 0-.9-.45-.9-1.05 0-.45.45-.9.9-.9v-.15zm.45 2.25h23.25c.45 0 .9.45.9 1.05s-.45 1.05-.9 1.05h-23.25c-.6 0-.9-.45-.9-1.05s.3-1.05.9-1.05zm7.65-15.9h1.8v1.2h1.35v-1.2h1.95v1.35h1.35v-1.5h1.8v3c0 .6-.3.9-.75.9h-6.6c-.45 0-.9-.3-.9-.75v-3zm6.9 4.05l.45 9.6h-6.45l.45-9.75h5.55"/><path id="E" d="M279.451 208.548h1.8v1.5h1.35v-1.5h1.8v1.5h1.35v-1.5h1.8v3c0 .6-.3.9-.75.9h-6.45c-.494 0-.9-.407-.9-.9v-3z"/><path id="F" d="M282.901 214.248a.6.6 0 0 1 1.2 0v1.8h-1.2v-1.8"/><path id="G" d="M439.501 221.598l1.05 9.45h-6.3c0-7.8-6-9-6-9-.15 0-6 1.65-6.15 9h-6.3l1.2-9.6h22.5v.15zm1.5 9.6h-25.5c-.45 0-.9.45-.9 1.05 0 .75.45 1.2.9 1.2h25.5c.45 0 .9-.45.9-1.2 0-.6-.45-1.05-1.05-1.05h.15z"/><path id="H" d="M431.701 231.048c0-4.95-3.45-6.3-3.45-6.3s-3.45 1.5-3.45 6.3h6.9m8.7-13.5h-24.45c-.45 0-.9.6-.9 1.2 0 .45.45.9.9.9h24.45c.45 0 .9-.45.9-1.05 0-.45-.45-.9-.9-.9v-.15zm-.45 2.25h-23.25c-.45 0-.9.45-.9 1.05s.45 1.05.9 1.05h23.25c.6 0 .9-.45.9-1.05s-.3-1.05-.9-1.05zm-7.65-15.9h-1.8v1.2h-1.35v-1.2h-1.95v1.35h-1.35v-1.5h-1.8v3c0 .6.3.9.75.9h6.6c.45 0 .9-.3.9-.75v-3zm-6.9 4.05l-.45 9.6h6.45l-.45-9.75h-5.55"/><path id="I" d="M440.251 208.548h-1.8v1.5h-1.35v-1.5h-1.8v1.5h-1.35v-1.5h-1.8v3c0 .6.3.9.75.9h6.45c.494 0 .9-.407.9-.9v-3z"/><path id="J" d="M348.901 303.648c-.027 3.165 1.154 6.224 3.3 8.55 2.025 2.264 4.913 3.572 7.95 3.6 3.15 0 6-1.5 7.95-3.6a12.45 12.45 0 0 0 3.3-8.55v-16.2h-22.5v16.2"/></defs></svg>