<?xml version="1.0" encoding="UTF-8" standalone="no"?><!DOCTYPE svg PUBLIC "-//W3C//DTD SVG 1.1//EN" "http://www.w3.org/Graphics/SVG/1.1/DTD/svg11.dtd"><svg width="100%" height="100%" viewBox="0 0 900 600" version="1.1" xmlns="http://www.w3.org/2000/svg" xmlns:xlink="http://www.w3.org/1999/xlink" xml:space="preserve" xmlns:serif="http://www.serif.com/" style="fill-rule:evenodd;clip-rule:evenodd;stroke-linejoin:round;stroke-miterlimit:2;"><rect id="rect8" x="0" y="0" width="900" height="600" style="fill:#ee1c25;"/><rect id="rect10" x="0" y="0" width="900" height="400" style="fill:#0b4ea2;"/><rect id="rect12" x="0" y="0" width="900" height="200" style="fill:#f5f2f2;"/><path id="path3055" d="M316.255,463.5c-53.781,-25.905 -130.71,-77.323 -130.71,-179.033c-0,-101.711 4.863,-147.967 4.863,-147.967l251.697,0c-0,0 4.864,46.256 4.864,147.967c0,101.71 -76.929,153.128 -130.714,179.033Z" style="fill:#f5f2f2;fill-rule:nonzero;"/><g id="g2826"><g id="g3759"><path id="path2828" d="M316.255,450c-49.34,-23.766 -119.917,-70.938 -119.917,-164.251c-0,-93.313 4.461,-135.749 4.461,-135.749l230.915,-0c-0,-0 4.462,42.436 4.462,135.749c0,93.313 -70.577,140.485 -119.921,164.251Z" style="fill:#ee1c25;fill-rule:nonzero;"/><g id="g2830"><g id="g2832"><clipPath id="_clip1"><path d="M316.255,450c-49.34,-23.766 -119.917,-70.938 -119.917,-164.251c-0,-93.313 4.461,-135.749 4.461,-135.749l230.915,-0c-0,-0 4.462,42.436 4.462,135.749c0,93.313 -70.577,140.485 -119.921,164.251Z"/></clipPath><g clip-path="url(#_clip1)"><path id="path2838" d="M326.808,261.284c13.359,0.216 39.425,0.739 62.635,-7.027c-0,-0 -0.613,8.305 -0.613,17.98c0,9.677 0.613,17.982 0.613,17.982c-21.29,-7.124 -47.58,-7.272 -62.635,-7.081l-0,51.539l-21.104,-0l0,-51.539c-15.054,-0.191 -41.345,-0.043 -62.635,7.081c0,0 0.613,-8.305 0.613,-17.982c0,-9.675 -0.613,-17.98 -0.613,-17.98c23.21,7.766 49.275,7.243 62.635,7.027l0,-32.368c-12.176,-0.108 -29.723,0.474 -49.563,7.113c0,-0 0.613,-8.306 0.613,-17.982c0,-9.676 -0.613,-17.982 -0.613,-17.982c19.811,6.629 37.336,7.22 49.509,7.114c-0.625,-20.495 -6.597,-46.33 -6.597,-46.33c0,0 12.289,0.959 17.202,0.959c4.918,0 17.203,-0.959 17.203,-0.959c0,0 -5.969,25.835 -6.596,46.33c12.174,0.106 29.699,-0.485 49.508,-7.114c0,0 -0.612,8.306 -0.612,17.982c-0,9.676 0.612,17.982 0.612,17.982c-19.838,-6.639 -37.386,-7.221 -49.562,-7.113l-0,32.368Z" style="fill:#fff;fill-rule:nonzero;"/><path id="path2840" d="M314.081,480.613l-102.235,-91.13c-0,-0 13.07,-42.271 38.581,-42.271c20.273,-0 27.671,16.346 27.671,16.346c0,-0 13.31,-34.457 38.157,-34.457c24.849,0 38.159,34.457 38.159,34.457c0,-0 7.397,-16.346 27.671,-16.346c25.511,-0 38.581,42.271 38.581,42.271l-106.585,91.13Z" style="fill:#0b4ea2;"/></g></g></g></g></g></svg>